<svg xmlns="http://www.w3.org/2000/svg" width="33" height="33" viewBox="0 0 33 33" fill="none">
<path d="M27.177 25.1223C27.242 25.3011 27.2547 25.4948 27.2135 25.6806C27.1723 25.8663 27.079 26.0365 26.9445 26.1711L23.9445 29.1711C23.8516 29.2641 23.7414 29.338 23.62 29.3884C23.4986 29.4388 23.3684 29.4647 23.237 29.4648C23.2041 29.4666 23.1711 29.4666 23.1382 29.4648C22.991 29.4503 22.8488 29.4033 22.7219 29.3272C22.595 29.2512 22.4866 29.1479 22.4045 29.0248L16.8957 20.7598L14.237 23.4136V26.4648C14.2368 26.7297 14.1317 26.9837 13.9445 27.1711C13.9445 27.1711 12.1945 28.9286 11.9595 29.1561C11.8618 29.2583 11.7433 29.3385 11.612 29.3911C11.3672 29.4907 11.093 29.4895 10.8492 29.3876C10.6053 29.2857 10.4118 29.0915 10.3107 28.8473L10.3032 28.8286L8.46572 24.2336L3.86197 22.3923C3.70839 22.3309 3.57245 22.2323 3.46633 22.1054C3.36021 21.9785 3.28722 21.8273 3.2539 21.6653C3.22058 21.5033 3.22797 21.3355 3.27541 21.177C3.32285 21.0186 3.40885 20.8744 3.52572 20.7573L5.52572 18.7573C5.61911 18.664 5.73003 18.5902 5.85211 18.54C5.97418 18.4897 6.10498 18.4642 6.23697 18.4648H9.28697L11.9457 15.8061L3.68197 10.2961C3.55872 10.214 3.45522 10.1056 3.37896 9.9787C3.3027 9.85179 3.25557 9.70952 3.24098 9.56218C3.22639 9.41483 3.2447 9.26609 3.29459 9.12668C3.34448 8.98727 3.42471 8.86069 3.52947 8.75606L6.52947 5.75606C6.66405 5.62154 6.83421 5.52821 7.01998 5.48703C7.20575 5.44585 7.39941 5.45852 7.57822 5.52356L18.3207 9.42981L22.262 5.48856C22.9184 4.83215 23.8087 4.46338 24.737 4.46338C25.1966 4.46338 25.6518 4.55391 26.0764 4.72981C26.5011 4.90571 26.887 5.16354 27.212 5.48856C27.537 5.81358 27.7948 6.19944 27.9707 6.6241C28.1466 7.04876 28.2372 7.50391 28.2372 7.96356C28.2372 8.42321 28.1466 8.87836 27.9707 9.30302C27.7948 9.72768 27.537 10.1135 27.212 10.4386L23.2707 14.3798L27.177 25.1223Z" fill="#F9FBFE"/>
</svg>