<svg xmlns="http://www.w3.org/2000/svg" width="145" height="60" viewBox="0 0 145 60" fill="none">
  <g clip-path="url(#clip0_187_5765)">
    <path d="M60.2188 38.341L63.1779 34.4757H60.7242L61.7432 33.1249H64.2132L69.9278 25.6465L72.8218 38.3492L71.1588 38.6665L70.1968 34.4676H64.9795L61.7676 38.6665L60.2188 38.341ZM69.9034 33.1249L68.9659 29.2595L65.9904 33.1249H69.9034Z" fill="#0196AF"/>
    <path d="M76.67 29.1946L78.17 28.9424L77.6808 30.7652C78.1781 30.2362 78.7488 29.8131 79.3765 29.4876C80.0775 29.1295 80.7786 28.9505 81.4552 28.9505C82.7514 28.9505 83.7704 29.3899 84.4796 30.2688C85.2296 31.1883 85.4171 32.3764 85.034 33.7923C84.659 35.2083 83.8356 36.3882 82.5965 37.3159C81.4389 38.1785 80.1917 38.6179 78.8873 38.6179C78.1863 38.6179 77.583 38.4389 77.0939 38.089C76.6455 37.7635 76.295 37.3159 76.0667 36.7625L74.7216 41.759L73.2217 42.0275L76.67 29.1946ZM81.0884 30.4722C80.1672 30.4722 79.2868 30.7977 78.4716 31.4406C77.6482 32.0916 77.1102 32.8809 76.8656 33.8005C76.6211 34.7119 76.727 35.5012 77.1917 36.1522C77.6564 36.7951 78.3575 37.1206 79.2705 37.1206C80.1917 37.1206 81.0802 36.787 81.9036 36.136C82.7269 35.4849 83.2731 34.6875 83.5177 33.7679C83.7622 32.8647 83.64 32.0835 83.1753 31.4406C82.7025 30.7977 82.0014 30.4722 81.0884 30.4722Z" fill="#0196AF"/>
    <path d="M90.0636 30.4561H86.9414L87.5936 29.0972H94.5962L94.2293 30.4561H91.5799L89.4441 38.4065L87.8544 38.675L90.0636 30.4561Z" fill="#0196AF"/>
    <path d="M95.3211 33.084H99.3727L98.7205 34.4104H94.6689L95.3211 33.084Z" fill="#0196AF"/>
    <path d="M134.239 26.7369L135.503 25.4756L136.106 26.7369L134.834 27.9575L134.239 26.7369ZM135.266 28.9178L132.772 38.2108L131.288 38.4956L133.783 29.2026L135.266 28.9178Z" fill="#0196AF"/>
    <path d="M102.862 32.3114C103.465 30.1306 104.533 28.4542 106.049 27.2743C107.566 26.1025 109.22 25.5166 110.998 25.5166C112.147 25.5166 113.125 25.777 113.932 26.2978C114.739 26.8186 115.286 27.5835 115.571 28.5844C115.856 29.5854 115.807 30.7734 115.432 32.1568C114.919 34.0529 113.957 35.599 112.555 36.7952C111.006 38.1135 109.278 38.7726 107.354 38.7726C105.414 38.7726 104.044 38.0972 103.237 36.7464C102.511 35.5176 102.381 34.0447 102.862 32.3114ZM104.639 32.3358C104.207 33.9145 104.297 35.1433 104.933 36.014C105.56 36.8847 106.498 37.3241 107.745 37.3241C109.017 37.3241 110.207 36.8847 111.307 36.0059C112.408 35.127 113.191 33.8331 113.655 32.1243C113.957 31.0257 114.006 30.0411 113.794 29.1703C113.639 28.5031 113.264 27.9741 112.693 27.5754C112.114 27.1767 111.422 26.9814 110.614 26.9814C109.31 26.9814 108.112 27.4208 107.028 28.2915C105.943 29.1541 105.144 30.5049 104.639 32.3358Z" fill="#0196AF"/>
    <path d="M124.93 25.744L126.528 25.4673L125.346 30.1708C126.201 29.4303 127.098 29.0641 128.028 29.0641C129.104 29.0641 129.87 29.5116 130.31 30.3986C130.75 31.2937 130.783 32.4574 130.4 33.8896C130.017 35.3462 129.348 36.518 128.394 37.4132C127.441 38.3083 126.438 38.7559 125.386 38.7559C124.522 38.7559 123.829 38.4141 123.316 37.7387L122.15 41.8481L120.544 42.1004L121.71 37.7468C120.878 38.4222 120.014 38.764 119.101 38.764C118.009 38.764 117.234 38.3002 116.786 37.3806C116.338 36.4611 116.305 35.273 116.704 33.8245C116.982 32.7911 117.405 31.9122 117.968 31.1798C118.53 30.4474 119.134 29.9185 119.761 29.5767C120.389 29.235 121.041 29.0722 121.71 29.0722C122.655 29.0722 123.332 29.4465 123.74 30.1789L124.93 25.744ZM118.327 33.9059C117.984 35.1753 117.968 36.0868 118.294 36.6401C118.612 37.1935 119.085 37.4701 119.721 37.4701C121.106 37.4701 122.109 36.3227 122.721 34.028C123.381 31.5867 122.973 30.3579 121.514 30.3579C120.895 30.3579 120.283 30.6509 119.704 31.2287C119.109 31.8064 118.653 32.7015 118.327 33.9059ZM124.294 34.0686C123.683 36.3553 124.074 37.4945 125.46 37.4945C126.128 37.4945 126.772 37.1853 127.384 36.575C127.995 35.9647 128.46 35.0533 128.786 33.8489C129.095 32.669 129.112 31.7901 128.843 31.2205C128.566 30.6427 128.093 30.3498 127.432 30.3498C125.998 30.3498 124.954 31.5867 124.294 34.0686Z" fill="#0196AF"/>
    <path d="M142.635 35.5821L144.168 35.7856C143.459 37.0306 142.79 37.4944 142.252 37.8932C141.404 38.5198 140.418 38.7639 139.391 38.7639C138.144 38.7639 137.231 38.357 136.635 37.5351C136.048 36.7132 135.959 35.5089 136.383 33.9058C136.807 32.2946 137.532 31.0821 138.543 30.2765C139.562 29.4708 140.703 29.064 141.975 29.064C142.953 29.064 143.711 29.3081 144.258 29.7963C144.804 30.2846 145.056 30.781 144.991 31.7575L143.369 31.9853C143.377 31.3587 143.23 31.1309 142.929 30.8217C142.627 30.5124 142.22 30.3578 141.69 30.3578C140.899 30.3578 140.173 30.6426 139.505 31.2041C138.836 31.7656 138.347 32.6607 138.029 33.8814C137.695 35.1508 137.711 36.0622 138.062 36.6237C138.413 37.1933 138.975 37.47 139.758 37.47C140.369 37.47 140.948 37.291 141.47 36.9085C142.024 36.4935 142.252 36.2168 142.635 35.5821Z" fill="#0196AF"/>
    <path d="M66.5776 45.0791L67.8657 47.8459H67.882L69.1048 45.0791H69.1618L69.9689 48.7166L69.5613 48.7979L69.0232 46.1939H69.0069L67.8575 48.7979H67.8412L66.6673 46.1939H66.651L66.1293 48.7979L65.7217 48.7166L66.5287 45.0791H66.5776Z" fill="#00939F"/>
    <path d="M73.3765 45.0791H73.4091V48.7166L72.9933 48.7979V46.0719L70.6537 48.7979H70.6211V45.1605L71.0368 45.0791V47.8052L73.3765 45.0791Z" fill="#00939F"/>
    <path d="M76.9715 45.8605C76.6943 45.6163 76.3601 45.478 76.0177 45.478C75.3003 45.478 74.6807 46.0476 74.6807 46.9346C74.6807 47.6426 75.1291 48.4075 76.034 48.4075C76.3845 48.4075 76.6861 48.2854 76.9552 48.0332L77.2079 48.3587C76.7595 48.7411 76.3356 48.8062 76.0421 48.8062C74.8601 48.8062 74.2568 47.8135 74.2568 46.9428C74.2568 45.9418 75.015 45.0874 76.0421 45.0874C76.5639 45.0874 76.947 45.2908 77.216 45.535L76.9715 45.8605Z" fill="#00939F"/>
    <path d="M77.7297 45.5594L77.795 45.1606H80.1346V45.5594H79.1563V48.7086L78.7406 48.79V45.5512H77.7297V45.5594Z" fill="#00939F"/>
    <path d="M83.7456 48.2853C83.4113 48.5782 82.9711 48.7979 82.4249 48.7979C81.2103 48.7979 80.6396 47.7645 80.6396 46.9345C80.6396 45.901 81.3815 45.0791 82.3923 45.0791C82.9222 45.0791 83.4847 45.3151 83.8352 45.9173L81.2184 47.5529C81.4467 48.0737 81.944 48.3667 82.4086 48.3667C82.8978 48.3667 83.4032 48.0737 83.7374 47.7238V48.2853H83.7456ZM83.2401 45.8278C83.0526 45.6406 82.7755 45.4778 82.3923 45.4778C81.7809 45.4778 81.0717 45.9417 81.0717 46.8775C81.0717 46.9751 81.088 47.0728 81.1043 47.1704L83.2401 45.8278Z" fill="#00939F"/>
    <path d="M87.3082 45.0791V48.3178H87.7566V49.5385L87.3408 49.6198V48.7084H84.6506V45.1605L85.0664 45.0791V48.3178H86.8924V45.1686L87.3082 45.0791Z" fill="#00939F"/>
    <path d="M88.1475 45.5594L88.2127 45.1606H90.5523V45.5594H89.5741V48.7086L89.1583 48.79V45.5512H88.1475V45.5594Z" fill="#00939F"/>
    <path d="M92.4522 45.1689C93.3326 45.1689 93.5772 45.7223 93.5772 46.0641C93.5772 46.3245 93.4386 46.65 93.1207 46.8209V46.8371C93.5527 46.9755 93.7484 47.3661 93.7484 47.7241C93.7484 48.1229 93.5038 48.7169 92.5256 48.7169H91.2783V45.1689H92.4522ZM91.6859 46.6907H92.4522C92.9413 46.6907 93.1451 46.4058 93.1451 46.1129C93.1451 45.8362 92.9332 45.5677 92.5256 45.5677H91.6778V46.6907H91.6859ZM91.6859 48.3182H92.55C93.1125 48.3182 93.3163 48.0171 93.3163 47.6997C93.3163 47.537 93.2593 47.0487 92.4685 47.0487H91.6778V48.3182H91.6859Z" fill="#00939F"/>
    <path d="M96.194 45.0791C97.1641 45.0791 97.963 45.9091 97.963 46.9345C97.963 47.9598 97.1723 48.7898 96.194 48.7898C95.2158 48.7898 94.425 47.9516 94.425 46.9345C94.425 45.9091 95.2239 45.0791 96.194 45.0791ZM96.194 48.4073C96.944 48.4073 97.5391 47.7319 97.5391 46.9426C97.5391 46.1451 96.9359 45.4778 96.194 45.4778C95.4604 45.4778 94.8489 46.137 94.8489 46.9426C94.8489 47.7401 95.4604 48.4073 96.194 48.4073Z" fill="#00939F"/>
    <path d="M103.213 45.8605C102.936 45.6163 102.602 45.478 102.259 45.478C101.542 45.478 100.922 46.0476 100.922 46.9346C100.922 47.6426 101.371 48.4075 102.275 48.4075C102.626 48.4075 102.928 48.2854 103.197 48.0332L103.449 48.3587C103.001 48.7411 102.577 48.8062 102.284 48.8062C101.102 48.8062 100.498 47.8135 100.498 46.9428C100.498 45.9418 101.256 45.0874 102.284 45.0874C102.805 45.0874 103.188 45.2908 103.457 45.535L103.213 45.8605Z" fill="#00939F"/>
    <path d="M107.02 45.1691V48.7171L106.604 48.7984V45.5597H104.778V48.7089L104.362 48.7903V45.1528H107.02V45.1691Z" fill="#00939F"/>
    <path d="M108.748 43.9643L108.439 44.3305L108.129 43.9643L108.439 43.5981L108.748 43.9643ZM108.235 48.798V45.1605L108.651 45.0792V48.7166L108.235 48.798Z" fill="#00939F"/>
    <path d="M110.965 45.0791L112.563 48.7166L112.188 48.7979L110.957 46.0719H110.933L109.775 48.7979L109.4 48.7166L110.957 45.0791H110.965Z" fill="#00939F"/>
    <path d="M113.574 45.0791V46.8449H113.59L115.107 45.0791L115.424 45.2825L114.03 46.8612L115.628 48.5294L115.335 48.7979L113.59 46.9426H113.574V48.7084L113.158 48.7898V45.1523L113.574 45.0791Z" fill="#00939F"/>
    <path d="M116.199 45.0791L117.552 47.6668H117.577L118.751 45.0791L119.126 45.2174C118.4 46.8612 117.65 48.4724 116.867 50.0186L116.452 49.9046L117.316 48.1551L115.783 45.2174L116.199 45.0791Z" fill="#00939F"/>
    <path d="M120.878 45.1689C121.767 45.1689 122.003 45.7223 122.003 46.0641C122.003 46.3245 121.864 46.65 121.546 46.8209V46.8371C121.979 46.9755 122.174 47.3661 122.174 47.7241C122.174 48.1229 121.93 48.7169 120.951 48.7169H119.704V45.1689H120.878ZM120.104 46.6907H120.87C121.359 46.6907 121.563 46.4058 121.563 46.1129C121.563 45.8362 121.351 45.5677 120.943 45.5677H120.095V46.6907H120.104ZM120.104 48.3182H120.968C121.53 48.3182 121.734 48.0171 121.734 47.6997C121.734 47.537 121.677 47.0487 120.886 47.0487H120.095V48.3182H120.104Z" fill="#00939F"/>
    <path d="M123.307 45.2746C123.528 45.1932 123.878 45.0874 124.237 45.0874C125.435 45.0874 125.443 46.0151 125.443 46.2022V48.7167L125.052 48.7981V48.2854H125.036C124.807 48.6679 124.416 48.7981 124.066 48.7981C123.405 48.7981 122.818 48.3099 122.818 47.5124C122.818 46.6742 123.462 46.2511 124.066 46.2511C124.384 46.2511 124.759 46.365 125.028 46.6986H125.044V46.1534C125.044 45.7465 124.718 45.478 124.237 45.478C123.919 45.478 123.593 45.5919 123.348 45.6977L123.153 45.7791L123.307 45.2746ZM123.234 47.488C123.234 47.9193 123.511 48.4075 124.123 48.4075C124.718 48.4075 125.044 47.9844 125.044 47.5368C125.044 47.0974 124.726 46.6498 124.082 46.6498C123.544 46.6417 123.234 47.0567 123.234 47.488Z" fill="#00939F"/>
    <path d="M126.112 45.5594L126.178 45.1606H128.517V45.5594H127.539V48.7086L127.123 48.79V45.5512H126.112V45.5594Z" fill="#00939F"/>
    <path d="M131.998 45.0791H132.03V48.7166L131.614 48.7979V46.0719L129.275 48.7979H129.242V45.1605L129.658 45.0791V47.8052L131.998 45.0791Z" fill="#00939F"/>
    <path d="M135.585 45.8605C135.308 45.6163 134.973 45.478 134.631 45.478C133.914 45.478 133.294 46.0476 133.294 46.9346C133.294 47.6426 133.742 48.4075 134.647 48.4075C134.998 48.4075 135.299 48.2854 135.568 48.0332L135.821 48.3587C135.373 48.7411 134.949 48.8062 134.655 48.8062C133.473 48.8062 132.87 47.8135 132.87 46.9428C132.87 45.9418 133.628 45.0874 134.655 45.0874C135.177 45.0874 135.56 45.2908 135.829 45.535L135.585 45.8605Z" fill="#00939F"/>
    <path d="M137.158 45.0791V46.5032H137.908C138.699 46.5032 139.123 47.0484 139.123 47.6099C139.123 48.1551 138.715 48.7084 137.859 48.7084H136.742V45.1605L137.158 45.0791ZM137.158 48.3178H137.851C138.446 48.3178 138.699 47.9679 138.699 47.618C138.699 47.2681 138.446 46.9019 137.851 46.9019H137.158V48.3178Z" fill="#00939F"/>
    <path d="M43.6052 38.1698L39.5618 39.7484L45.0399 45.225L44.9584 45.1436L19.7931 55.0144L6.60314 41.8479L14.7226 38.6743L11.7308 35.6797L0 40.253L19.035 59.2541L51.8958 46.4456L43.6052 38.1698Z" fill="url(#paint0_linear_187_5765)"/>
    <path d="M54.2762 38.1697L21.4154 50.9782L2.37231 31.9771L35.2413 19.1768L54.2762 38.1697ZM22.4833 46.4293L47.6649 36.5829L34.475 23.4083L9.31784 33.2791L22.4833 46.4293Z" fill="url(#paint1_linear_187_5765)"/>
    <path d="M16.8093 21.9032C19.6055 24.9059 23.9831 23.018 26.3635 20.6174C30.2439 16.7033 37.5725 0.745605 37.5725 0.745605L24.2847 42.0679L16.8093 21.9032Z" fill="url(#paint2_linear_187_5765)"/>
  </g>
  <defs>
    <linearGradient id="paint0_linear_187_5765" x1="-12.6514" y1="47.7753" x2="54.9352" y2="47.033" gradientUnits="userSpaceOnUse">
      <stop stop-color="#FFCD02"/>
      <stop offset="0.1361" stop-color="#FFCA05"/>
      <stop offset="0.2751" stop-color="#FFC20E"/>
      <stop offset="0.4156" stop-color="#FCB316"/>
      <stop offset="0.557" stop-color="#F99E1C"/>
      <stop offset="0.6993" stop-color="#F5841F"/>
      <stop offset="0.8422" stop-color="#F26222"/>
      <stop offset="0.9831" stop-color="#EE2824"/>
      <stop offset="1" stop-color="#ED1C24"/>
    </linearGradient>
    <linearGradient id="paint1_linear_187_5765" x1="11.4046" y1="52.3373" x2="40.9437" y2="22.0894" gradientUnits="userSpaceOnUse">
      <stop stop-color="#ED1C24"/>
      <stop offset="0.0168634" stop-color="#EE2824"/>
      <stop offset="0.1578" stop-color="#F26222"/>
      <stop offset="0.3007" stop-color="#F5841F"/>
      <stop offset="0.443" stop-color="#F99E1C"/>
      <stop offset="0.5844" stop-color="#FCB316"/>
      <stop offset="0.7249" stop-color="#FFC20E"/>
      <stop offset="0.8639" stop-color="#FFCA05"/>
      <stop offset="1" stop-color="#FFCD02"/>
    </linearGradient>
    <linearGradient id="paint2_linear_187_5765" x1="38.8437" y1="42.7849" x2="15.8969" y2="-19.3727" gradientUnits="userSpaceOnUse">
      <stop stop-color="#007780"/>
      <stop offset="0.0439622" stop-color="#007D86"/>
      <stop offset="0.2129" stop-color="#00929C"/>
      <stop offset="0.3889" stop-color="#00A2AD"/>
      <stop offset="0.5726" stop-color="#00AEBA"/>
      <stop offset="0.7689" stop-color="#00B6C2"/>
      <stop offset="1" stop-color="#00BAC6"/>
    </linearGradient>
    <clipPath id="clip0_187_5765">
      <rect width="145" height="58.5088" fill="white" transform="translate(0 0.745605)"/>
    </clipPath>
  </defs>
</svg>