<svg xmlns="http://www.w3.org/2000/svg" width="22" height="22" viewBox="0 0 22 22" fill="none">
<path d="M12.3754 8.93739V5.49989C12.3753 5.36384 12.4155 5.23081 12.4911 5.11766C12.5666 5.0045 12.674 4.9163 12.7997 4.86422C12.9254 4.81214 13.0637 4.79852 13.1972 4.82509C13.3306 4.85166 13.4531 4.91723 13.5493 5.01349L14.7816 6.24669L17.389 3.63849C17.518 3.50948 17.6929 3.43701 17.8754 3.43701C18.0578 3.43701 18.2328 3.50948 18.3618 3.63849C18.4908 3.76749 18.5633 3.94246 18.5633 4.12489C18.5633 4.30733 18.4908 4.4823 18.3618 4.6113L15.7536 7.21864L16.9868 8.45099C17.083 8.54714 17.1486 8.66969 17.1752 8.80312C17.2018 8.93655 17.1881 9.07487 17.1361 9.20056C17.084 9.32625 16.9958 9.43367 16.8826 9.5092C16.7695 9.58474 16.6364 9.625 16.5004 9.62489H13.0629C12.8805 9.62489 12.7057 9.55246 12.5767 9.42353C12.4478 9.2946 12.3754 9.11973 12.3754 8.93739ZM8.93788 12.3749H5.50038C5.36433 12.3748 5.2313 12.4151 5.11814 12.4906C5.00499 12.5661 4.91678 12.6735 4.8647 12.7992C4.81262 12.9249 4.79901 13.0632 4.82558 13.1967C4.85215 13.3301 4.91772 13.4527 5.01398 13.5488L6.24718 14.7811L3.63898 17.3885C3.50997 17.5175 3.4375 17.6925 3.4375 17.8749C3.4375 18.0573 3.50997 18.2323 3.63898 18.3613C3.76798 18.4903 3.94294 18.5628 4.12538 18.5628C4.30782 18.5628 4.48279 18.4903 4.61179 18.3613L7.21913 15.7531L8.45148 16.9863C8.54763 17.0826 8.67018 17.1481 8.80361 17.1747C8.93704 17.2013 9.07536 17.1877 9.20105 17.1356C9.32674 17.0835 9.43415 16.9953 9.50969 16.8821C9.58523 16.769 9.62549 16.6359 9.62538 16.4999V13.0624C9.62538 12.8801 9.55295 12.7052 9.42402 12.5763C9.29509 12.4473 9.12022 12.3749 8.93788 12.3749ZM9.20085 4.86482C9.07524 4.8127 8.937 4.79902 8.80361 4.82548C8.67022 4.85194 8.54768 4.91737 8.45148 5.01349L7.21913 6.24669L4.61179 3.63849C4.48279 3.50948 4.30782 3.43701 4.12538 3.43701C3.94294 3.43701 3.76798 3.50948 3.63898 3.63849C3.50997 3.76749 3.4375 3.94246 3.4375 4.12489C3.4375 4.30733 3.50997 4.4823 3.63898 4.6113L6.24718 7.21864L5.01398 8.45099C4.91772 8.54714 4.85215 8.66969 4.82558 8.80312C4.79901 8.93655 4.81262 9.07487 4.8647 9.20056C4.91678 9.32625 5.00499 9.43367 5.11814 9.5092C5.2313 9.58474 5.36433 9.625 5.50038 9.62489H8.93788C9.12022 9.62489 9.29509 9.55246 9.42402 9.42353C9.55295 9.2946 9.62538 9.11973 9.62538 8.93739V5.49989C9.62535 5.36392 9.58501 5.23101 9.50944 5.11797C9.43387 5.00492 9.32648 4.91683 9.20085 4.86482ZM15.7536 14.7811L16.9868 13.5488C17.083 13.4527 17.1486 13.3301 17.1752 13.1967C17.2018 13.0632 17.1881 12.9249 17.1361 12.7992C17.084 12.6735 16.9958 12.5661 16.8826 12.4906C16.7695 12.4151 16.6364 12.3748 16.5004 12.3749H13.0629C12.8805 12.3749 12.7057 12.4473 12.5767 12.5763C12.4478 12.7052 12.3754 12.8801 12.3754 13.0624V16.4999C12.3753 16.6359 12.4155 16.769 12.4911 16.8821C12.5666 16.9953 12.674 17.0835 12.7997 17.1356C12.9254 17.1877 13.0637 17.2013 13.1972 17.1747C13.3306 17.1481 13.4531 17.0826 13.5493 16.9863L14.7816 15.7531L17.389 18.3613C17.4529 18.4252 17.5287 18.4758 17.6121 18.5104C17.6956 18.545 17.785 18.5628 17.8754 18.5628C17.9657 18.5628 18.0552 18.545 18.1386 18.5104C18.2221 18.4758 18.2979 18.4252 18.3618 18.3613C18.4257 18.2974 18.4763 18.2216 18.5109 18.1381C18.5455 18.0547 18.5633 17.9652 18.5633 17.8749C18.5633 17.7846 18.5455 17.6951 18.5109 17.6117C18.4763 17.5282 18.4257 17.4524 18.3618 17.3885L15.7536 14.7811Z" fill="#F9FBFE"/>
</svg>