<svg xmlns="http://www.w3.org/2000/svg" width="22" height="22" viewBox="0 0 22 22" fill="none">
<path d="M9.42391 12.5761C9.48783 12.6399 9.53854 12.7158 9.57313 12.7992C9.60773 12.8827 9.62554 12.9722 9.62554 13.0625C9.62554 13.1528 9.60773 13.2423 9.57313 13.3258C9.53854 13.4092 9.48783 13.4851 9.42391 13.5489L7.15945 15.8125L8.73641 17.3886C8.83266 17.4847 8.89823 17.6073 8.9248 17.7407C8.95137 17.8742 8.93776 18.0125 8.88568 18.1382C8.8336 18.2639 8.7454 18.3713 8.63224 18.4468C8.51908 18.5223 8.38605 18.5626 8.25 18.5625H4.125C3.94266 18.5625 3.7678 18.4901 3.63886 18.3611C3.50993 18.2322 3.4375 18.0573 3.4375 17.875V13.75C3.43739 13.6139 3.47766 13.4809 3.55319 13.3678C3.62873 13.2546 3.73614 13.1664 3.86183 13.1143C3.98752 13.0622 4.12584 13.0486 4.25927 13.0752C4.39271 13.1018 4.51526 13.1673 4.61141 13.2636L6.1875 14.8405L8.45109 12.5761C8.51494 12.5122 8.59077 12.4615 8.67423 12.4269C8.75769 12.3923 8.84715 12.3745 8.9375 12.3745C9.02785 12.3745 9.11731 12.3923 9.20077 12.4269C9.28423 12.4615 9.36006 12.5122 9.42391 12.5761ZM7.15945 6.1875L8.73641 4.61141C8.83266 4.51526 8.89823 4.39271 8.9248 4.25927C8.95137 4.12584 8.93776 3.98752 8.88568 3.86183C8.8336 3.73614 8.7454 3.62873 8.63224 3.55319C8.51908 3.47766 8.38605 3.43739 8.25 3.4375H4.125C3.94266 3.4375 3.7678 3.50993 3.63886 3.63886C3.50993 3.7678 3.4375 3.94266 3.4375 4.125V8.25C3.43739 8.38605 3.47766 8.51908 3.55319 8.63224C3.62873 8.7454 3.73614 8.8336 3.86183 8.88568C3.98752 8.93776 4.12584 8.95137 4.25927 8.9248C4.39271 8.89823 4.51526 8.83266 4.61141 8.73641L6.1875 7.15945L8.45109 9.42391C8.5801 9.55291 8.75506 9.62538 8.9375 9.62538C9.11994 9.62538 9.2949 9.55291 9.42391 9.42391C9.55291 9.2949 9.62538 9.11994 9.62538 8.9375C9.62538 8.75506 9.55291 8.5801 9.42391 8.45109L7.15945 6.1875ZM17.875 3.4375H13.75C13.6139 3.43739 13.4809 3.47766 13.3678 3.55319C13.2546 3.62873 13.1664 3.73614 13.1143 3.86183C13.0622 3.98752 13.0486 4.12584 13.0752 4.25927C13.1018 4.39271 13.1673 4.51526 13.2636 4.61141L14.8405 6.1875L12.5761 8.45109C12.4471 8.5801 12.3746 8.75506 12.3746 8.9375C12.3746 9.11994 12.4471 9.2949 12.5761 9.42391C12.7051 9.55291 12.8801 9.62538 13.0625 9.62538C13.2449 9.62538 13.4199 9.55291 13.5489 9.42391L15.8125 7.15945L17.3886 8.73641C17.4847 8.83266 17.6073 8.89823 17.7407 8.9248C17.8742 8.95137 18.0125 8.93776 18.1382 8.88568C18.2639 8.8336 18.3713 8.7454 18.4468 8.63224C18.5223 8.51908 18.5626 8.38605 18.5625 8.25V4.125C18.5625 3.94266 18.4901 3.7678 18.3611 3.63886C18.2322 3.50993 18.0573 3.4375 17.875 3.4375ZM18.138 13.1149C18.0124 13.0628 17.8741 13.0491 17.7407 13.0756C17.6073 13.102 17.4848 13.1675 17.3886 13.2636L15.8125 14.8405L13.5489 12.5761C13.4199 12.4471 13.2449 12.3746 13.0625 12.3746C12.8801 12.3746 12.7051 12.4471 12.5761 12.5761C12.4471 12.7051 12.3746 12.8801 12.3746 13.0625C12.3746 13.2449 12.4471 13.4199 12.5761 13.5489L14.8405 15.8125L13.2636 17.3886C13.1673 17.4847 13.1018 17.6073 13.0752 17.7407C13.0486 17.8742 13.0622 18.0125 13.1143 18.1382C13.1664 18.2639 13.2546 18.3713 13.3678 18.4468C13.4809 18.5223 13.6139 18.5626 13.75 18.5625H17.875C18.0573 18.5625 18.2322 18.4901 18.3611 18.3611C18.4901 18.2322 18.5625 18.0573 18.5625 17.875V13.75C18.5625 13.614 18.5221 13.4811 18.4466 13.3681C18.371 13.255 18.2636 13.1669 18.138 13.1149Z" fill="#F9FBFE"/>
</svg>