<svg xmlns="http://www.w3.org/2000/svg" width="33" height="33" viewBox="0 0 33 33" fill="none">
<path d="M27.2373 5.46484H5.2373C4.70687 5.46484 4.19816 5.67556 3.82309 6.05063C3.44802 6.4257 3.2373 6.93441 3.2373 7.46484V25.4648C3.2373 25.9953 3.44802 26.504 3.82309 26.8791C4.19816 27.2541 4.70687 27.4648 5.2373 27.4648H27.2373C27.7677 27.4648 28.2764 27.2541 28.6515 26.8791C29.0266 26.504 29.2373 25.9953 29.2373 25.4648V7.46484C29.2373 6.93441 29.0266 6.4257 28.6515 6.05063C28.2764 5.67556 27.7677 5.46484 27.2373 5.46484ZM13.1123 22.9648C13.2449 23.1961 13.2802 23.4705 13.2105 23.7278C13.1408 23.9851 12.9717 24.2041 12.7404 24.3367C12.5092 24.4693 12.2348 24.5046 11.9775 24.4349C11.7202 24.3652 11.5012 24.1961 11.3686 23.9648L7.36855 16.9648C7.28217 16.8137 7.23673 16.6427 7.23673 16.4686C7.23673 16.2945 7.28217 16.1235 7.36855 15.9723L11.3686 8.97234C11.5002 8.74111 11.7183 8.57163 11.9748 8.50118C12.2314 8.43074 12.5054 8.46511 12.7367 8.59672C12.9679 8.72833 13.1374 8.94641 13.2078 9.20299C13.2783 9.45956 13.2439 9.73361 13.1123 9.96484L9.38855 16.4648L13.1123 22.9648ZM25.1123 16.9648L21.1123 23.9648C20.9807 24.1953 20.7629 24.3639 20.507 24.4338C20.251 24.5037 19.9777 24.469 19.7473 24.3373C19.5169 24.2057 19.3482 23.988 19.2784 23.732C19.2085 23.476 19.2432 23.2028 19.3748 22.9723L23.0923 16.4723L19.3686 9.96484C19.3029 9.85035 19.2604 9.72404 19.2436 9.59313C19.2267 9.46222 19.2358 9.32928 19.2704 9.20189C19.3049 9.0745 19.3642 8.95516 19.4448 8.85068C19.5255 8.7462 19.6259 8.65863 19.7404 8.59297C19.8549 8.52731 19.9812 8.48484 20.1121 8.46799C20.2431 8.45115 20.376 8.46025 20.5034 8.49478C20.6308 8.52931 20.7501 8.5886 20.8546 8.66925C20.9591 8.7499 21.0466 8.85035 21.1123 8.96484L25.1123 15.9648C25.2001 16.1169 25.2463 16.2893 25.2463 16.4648C25.2463 16.6404 25.2001 16.8128 25.1123 16.9648Z" fill="#F9FBFE"/>
</svg>