<svg xmlns="http://www.w3.org/2000/svg" width="22" height="22" viewBox="0 0 22 22" fill="none">
<path d="M17.875 4.125H4.125C3.57799 4.125 3.05339 4.3423 2.66659 4.72909C2.2798 5.11589 2.0625 5.64049 2.0625 6.1875V15.8125C2.0625 16.3595 2.2798 16.8841 2.66659 17.2709C3.05339 17.6577 3.57799 17.875 4.125 17.875H17.875C18.422 17.875 18.9466 17.6577 19.3334 17.2709C19.7202 16.8841 19.9375 16.3595 19.9375 15.8125V6.1875C19.9375 5.64049 19.7202 5.11589 19.3334 4.72909C18.9466 4.3423 18.422 4.125 17.875 4.125ZM13.0213 10.7259C12.9249 11.1903 12.6715 11.6073 12.3037 11.9067C11.9358 12.2061 11.476 12.3696 11.0017 12.3696C10.5274 12.3696 10.0676 12.2061 9.69978 11.9067C9.33192 11.6073 9.0785 11.1903 8.98219 10.7259C8.91888 10.4147 8.74982 10.135 8.50372 9.93436C8.25762 9.73369 7.94965 9.62438 7.63211 9.625H3.4375V8.25H18.5625V9.625H14.3679C14.0509 9.62517 13.7438 9.73484 13.4984 9.93545C13.253 10.136 13.0844 10.4153 13.0213 10.7259ZM4.125 5.5H17.875C18.0573 5.5 18.2322 5.57243 18.3611 5.70136C18.4901 5.8303 18.5625 6.00516 18.5625 6.1875V6.875H3.4375V6.1875C3.4375 6.00516 3.50993 5.8303 3.63886 5.70136C3.7678 5.57243 3.94266 5.5 4.125 5.5Z" fill="#F9FBFE"/>
</svg>