<svg xmlns="http://www.w3.org/2000/svg" width="16" height="19" viewBox="0 0 16 19" fill="none">
<g clip-path="url(#clip0_268_1399)">
<path opacity="0.2" d="M15.0967 4.87451H10.8467V0.624512L15.0967 4.87451Z" fill="white"/>
<path d="M2.49169 12.5988H1.27741C1.11638 12.5988 0.961955 12.6628 0.848093 12.7767C0.734232 12.8905 0.670265 13.045 0.670265 13.206V17.456C0.670265 17.617 0.734232 17.7714 0.848093 17.8853C0.961955 17.9992 1.11638 18.0631 1.27741 18.0631H2.49169C3.2163 18.0631 3.91123 17.7753 4.42361 17.2629C4.93599 16.7505 5.22384 16.0556 5.22384 15.331C5.22384 14.6064 4.93599 13.9114 4.42361 13.3991C3.91123 12.8867 3.2163 12.5988 2.49169 12.5988ZM2.49169 16.8488H1.88455V13.8131H2.49169C2.89425 13.8131 3.28033 13.973 3.56498 14.2577C3.84963 14.5424 4.00955 14.9284 4.00955 15.331C4.00955 15.7335 3.84963 16.1196 3.56498 16.4043C3.28033 16.6889 2.89425 16.8488 2.49169 16.8488ZM15.3578 16.4762C15.4741 16.5875 15.5415 16.7405 15.545 16.9015C15.5486 17.0624 15.4881 17.2182 15.3768 17.3346C15.1654 17.5621 14.9097 17.7441 14.6255 17.8694C14.3413 17.9947 14.0344 18.0606 13.7238 18.0631C12.3843 18.0631 11.2953 16.8375 11.2953 15.331C11.2953 13.8245 12.3843 12.5988 13.7238 12.5988C14.0344 12.6014 14.3413 12.6673 14.6255 12.7926C14.9097 12.9178 15.1654 13.0998 15.3768 13.3274C15.4857 13.4442 15.5442 13.5992 15.5396 13.7588C15.535 13.9184 15.4678 14.0697 15.3524 14.1801C15.2371 14.2905 15.0828 14.351 14.9232 14.3485C14.7636 14.346 14.6113 14.2807 14.4995 14.1668C14.4009 14.0583 14.2813 13.9711 14.148 13.9103C14.0147 13.8495 13.8703 13.8164 13.7238 13.8131C13.0545 13.8131 12.5096 14.4962 12.5096 15.331C12.5096 16.1658 13.0545 16.8488 13.7238 16.8488C13.8704 16.8458 14.0148 16.8129 14.1482 16.7521C14.2815 16.6913 14.4011 16.6038 14.4995 16.4952C14.6108 16.3789 14.7637 16.3115 14.9247 16.3079C15.0857 16.3044 15.2415 16.3649 15.3578 16.4762ZM8.25955 12.5988C6.9208 12.5988 5.83098 13.8245 5.83098 15.331C5.83098 16.8375 6.9208 18.0631 8.25955 18.0631C9.5983 18.0631 10.6881 16.8375 10.6881 15.331C10.6881 13.8245 9.5983 12.5988 8.25955 12.5988ZM8.25955 16.8488C7.59018 16.8488 7.04527 16.1658 7.04527 15.331C7.04527 14.4962 7.59018 13.8131 8.25955 13.8131C8.92893 13.8131 9.47384 14.4962 9.47384 15.331C9.47384 16.1658 8.92893 16.8488 8.25955 16.8488ZM2.18812 10.7774C2.34915 10.7774 2.50358 10.7134 2.61744 10.5996C2.7313 10.4857 2.79527 10.3313 2.79527 10.1703V4.70598H9.47384V8.34884C9.47384 8.50987 9.5378 8.6643 9.65166 8.77816C9.76553 8.89202 9.91996 8.95598 10.081 8.95598H13.7238V10.1703C13.7238 10.3313 13.7878 10.4857 13.9017 10.5996C14.0155 10.7134 14.17 10.7774 14.331 10.7774C14.492 10.7774 14.6464 10.7134 14.7603 10.5996C14.8742 10.4857 14.9381 10.3313 14.9381 10.1703V8.34884C14.9382 8.26909 14.9225 8.1901 14.8921 8.1164C14.8616 8.04269 14.8169 7.97571 14.7605 7.91929L10.5105 3.66929C10.4541 3.61292 10.3871 3.56823 10.3134 3.53776C10.2397 3.50729 10.1607 3.49164 10.081 3.4917H2.79527C2.47322 3.4917 2.16436 3.61963 1.93664 3.84736C1.70891 4.07508 1.58098 4.38394 1.58098 4.70598V10.1703C1.58098 10.3313 1.64495 10.4857 1.75881 10.5996C1.87267 10.7134 2.0271 10.7774 2.18812 10.7774ZM10.6881 5.56433L12.8655 7.7417H10.6881V5.56433Z" fill="white"/>
</g>
<defs>
<clipPath id="clip0_268_1399">
<rect width="15.1786" height="17.6071" fill="white" transform="translate(0.525551 0.624512)"/>
</clipPath>
</defs>
</svg>