<svg width="22" height="21" viewBox="0 0 22 21" fill="none" xmlns="http://www.w3.org/2000/svg">
<g id="icons8-facebook 1">
<path id="Vector" d="M16.0338 2.26953H5.96662C4.57672 2.26953 3.44983 3.39642 3.44983 4.78632V14.8535C3.44983 16.2434 4.57672 17.3703 5.96662 17.3703H11.3148V12.0221H9.4272V9.8199H11.3148V8.2469C11.3148 6.04471 12.5732 4.78632 14.4608 4.78632C15.4464 4.78632 16.0338 5.10092 16.0338 5.10092V6.98851H14.7754C13.8756 6.98851 13.517 7.64696 13.517 8.2469V9.8199H15.7192L15.4046 12.0221H13.517V17.3703H16.0338C17.4237 17.3703 18.5506 16.2434 18.5506 14.8535V4.78632C18.5506 3.39642 17.4237 2.26953 16.0338 2.26953Z" fill="#060640"/>
</g>
</svg>
