<svg xmlns="http://www.w3.org/2000/svg" width="24" height="23" viewBox="0 0 24 23" fill="none">
<path d="M15.8891 15.7031L9.52513 15.7031C9.39244 15.7031 9.2652 15.6504 9.17138 15.5566C9.07756 15.4628 9.02485 15.3355 9.02485 15.2029C9.02485 15.0702 9.07756 14.9429 9.17138 14.8491C9.2652 14.7553 9.39244 14.7026 9.52513 14.7026L14.6821 14.703L7.75736 7.77824C7.66359 7.68447 7.61091 7.55729 7.61091 7.42468C7.61091 7.29208 7.66359 7.1649 7.75736 7.07113C7.85113 6.97736 7.97831 6.92468 8.11091 6.92468C8.24352 6.92468 8.3707 6.97736 8.46447 7.07113L15.3893 13.9959L15.3888 8.8389C15.3888 8.70622 15.4415 8.57897 15.5353 8.48515C15.6292 8.39133 15.7564 8.33862 15.8891 8.33862C16.0218 8.33862 16.149 8.39133 16.2428 8.48515C16.3367 8.57897 16.3894 8.70622 16.3894 8.8389L16.3894 15.2029C16.3894 15.2686 16.3765 15.3336 16.3514 15.3944C16.3262 15.4551 16.2894 15.5102 16.2429 15.5567C16.1965 15.6032 16.1413 15.64 16.0806 15.6651C16.0199 15.6903 15.9548 15.7032 15.8891 15.7031Z" fill="white"/>
</svg>