<svg xmlns="http://www.w3.org/2000/svg" width="20" height="20" viewBox="0 0 20 20" fill="none">
  <path d="M17.4246 3.8125H2.57456C2.41046 3.8125 2.25308 3.87769 2.13704 3.99373C2.021 4.10977 1.95581 4.26715 1.95581 4.43125V14.95C1.95581 15.2782 2.08619 15.593 2.31827 15.825C2.55034 16.0571 2.86511 16.1875 3.19331 16.1875H16.8058C17.134 16.1875 17.4488 16.0571 17.6809 15.825C17.9129 15.593 18.0433 15.2782 18.0433 14.95V4.43125C18.0433 4.26715 17.9781 4.10977 17.8621 3.99373C17.746 3.87769 17.5887 3.8125 17.4246 3.8125ZM7.73416 10L3.19331 14.1619V5.83813L7.73416 10ZM8.64991 10.8392L9.57804 11.6938C9.69219 11.7986 9.84151 11.8568 9.99647 11.8568C10.1514 11.8568 10.3007 11.7986 10.4149 11.6938L11.343 10.8392L15.829 14.95H4.16552L8.64991 10.8392ZM12.265 10L16.8058 5.83736V14.1626L12.265 10Z" fill="#F9FBFE"/>
</svg>