<svg xmlns="http://www.w3.org/2000/svg" width="20" height="20" viewBox="0 0 20 20" fill="none">
<path d="M15.5684 17.4249H11.7429C12.3856 16.8511 12.9916 16.2376 13.5574 15.588C15.6805 13.1462 16.8059 10.5722 16.8059 8.14365C16.8059 6.33852 16.0888 4.60733 14.8124 3.33091C13.5359 2.05449 11.8047 1.3374 9.99961 1.3374C8.19448 1.3374 6.46328 2.05449 5.18686 3.33091C3.91044 4.60733 3.19336 6.33852 3.19336 8.14365C3.19336 10.5722 4.31562 13.1462 6.4418 15.588C7.00765 16.2376 7.61367 16.8511 8.25628 17.4249H4.43086C4.26676 17.4249 4.10938 17.4901 3.99334 17.6061C3.8773 17.7222 3.81211 17.8796 3.81211 18.0437C3.81211 18.2078 3.8773 18.3651 3.99334 18.4812C4.10938 18.5972 4.26676 18.6624 4.43086 18.6624H15.5684C15.7325 18.6624 15.8898 18.5972 16.0059 18.4812C16.1219 18.3651 16.1871 18.2078 16.1871 18.0437C16.1871 17.8796 16.1219 17.7222 16.0059 17.6061C15.8898 17.4901 15.7325 17.4249 15.5684 17.4249ZM9.99961 5.66865C10.4891 5.66865 10.9676 5.81381 11.3746 6.08577C11.7817 6.35772 12.0989 6.74426 12.2862 7.19651C12.4735 7.64876 12.5226 8.1464 12.4271 8.6265C12.3316 9.1066 12.0958 9.54761 11.7497 9.89374C11.4036 10.2399 10.9626 10.4756 10.4825 10.5711C10.0024 10.6666 9.50471 10.6176 9.05247 10.4303C8.60022 10.2429 8.21368 9.9257 7.94172 9.51869C7.66977 9.11168 7.52461 8.63316 7.52461 8.14365C7.52461 7.48724 7.78537 6.85772 8.24952 6.39356C8.71367 5.92941 9.3432 5.66865 9.99961 5.66865Z" fill="#F9FBFE"/>
</svg>