<svg xmlns="http://www.w3.org/2000/svg" width="20" height="20" viewBox="0 0 20 20" fill="none">
  <path d="M18.0337 13.641C17.8958 14.689 17.3811 15.651 16.5857 16.3473C15.7904 17.0436 14.7688 17.4265 13.7117 17.4246C7.57063 17.4246 2.57423 12.4282 2.57423 6.28715C2.57233 5.23008 2.95529 4.20847 3.65157 3.41313C4.34786 2.61778 5.30985 2.10309 6.35788 1.96518C6.6229 1.93282 6.89128 1.98704 7.12296 2.11974C7.35463 2.25245 7.53717 2.45652 7.64333 2.70149L9.27684 6.34825V6.35753C9.35811 6.54505 9.39168 6.74979 9.37454 6.95345C9.3574 7.15711 9.29009 7.35335 9.17861 7.52465C9.16469 7.54553 9.14999 7.56487 9.13452 7.5842L7.52423 9.49305C8.10353 10.6702 9.33484 11.8907 10.5275 12.4716L12.41 10.8698C12.4285 10.8542 12.4479 10.8398 12.468 10.8265C12.6392 10.7123 12.8361 10.6426 13.041 10.6237C13.2458 10.6048 13.4522 10.6373 13.6413 10.7182L13.6514 10.7228L17.2951 12.3555C17.5405 12.4613 17.745 12.6437 17.8782 12.8754C18.0113 13.1071 18.0659 13.3757 18.0337 13.641Z" fill="#F9FBFE"/>
</svg>