<svg xmlns="http://www.w3.org/2000/svg" width="33" height="33" viewBox="0 0 33 33" fill="none">
<path d="M27.2366 8.46485H18.6503L22.9441 4.17235C23.1317 3.98471 23.2371 3.73021 23.2371 3.46485C23.2371 3.19949 23.1317 2.94499 22.9441 2.75735C22.7564 2.56971 22.5019 2.46429 22.2366 2.46429C21.9712 2.46429 21.7167 2.56971 21.5291 2.75735L16.2366 8.0511L10.9441 2.75735C10.8512 2.66444 10.7409 2.59074 10.6195 2.54046C10.4981 2.49017 10.368 2.46429 10.2366 2.46429C10.1052 2.46429 9.97507 2.49017 9.85368 2.54046C9.73228 2.59074 9.62198 2.66444 9.52907 2.75735C9.34143 2.94499 9.23602 3.19949 9.23602 3.46485C9.23602 3.73021 9.34143 3.98471 9.52907 4.17235L13.8228 8.46485H5.23657C4.70614 8.46485 4.19743 8.67556 3.82236 9.05064C3.44729 9.42571 3.23657 9.93442 3.23657 10.4649V25.4649C3.23657 25.9953 3.44729 26.504 3.82236 26.8791C4.19743 27.2541 4.70614 27.4649 5.23657 27.4649H27.2366C27.767 27.4649 28.2757 27.2541 28.6508 26.8791C29.0259 26.504 29.2366 25.9953 29.2366 25.4649V10.4649C29.2366 9.93442 29.0259 9.42571 28.6508 9.05064C28.2757 8.67556 27.767 8.46485 27.2366 8.46485ZM27.2366 25.4649H20.2366V10.4649H27.2366V25.4649ZM25.2366 14.9649C25.2366 15.2615 25.1486 15.5515 24.9838 15.7982C24.819 16.0449 24.5847 16.2371 24.3106 16.3507C24.0365 16.4642 23.7349 16.4939 23.4439 16.436C23.153 16.3782 22.8857 16.2353 22.6759 16.0255C22.4661 15.8157 22.3233 15.5485 22.2654 15.2575C22.2075 14.9665 22.2372 14.6649 22.3508 14.3908C22.4643 14.1167 22.6565 13.8825 22.9032 13.7176C23.1499 13.5528 23.4399 13.4649 23.7366 13.4649C24.1344 13.4649 24.5159 13.6229 24.7972 13.9042C25.0785 14.1855 25.2366 14.567 25.2366 14.9649ZM25.2366 20.9649C25.2366 21.2615 25.1486 21.5515 24.9838 21.7982C24.819 22.0449 24.5847 22.2371 24.3106 22.3507C24.0365 22.4642 23.7349 22.4939 23.4439 22.436C23.153 22.3782 22.8857 22.2353 22.6759 22.0255C22.4661 21.8157 22.3233 21.5485 22.2654 21.2575C22.2075 20.9665 22.2372 20.6649 22.3508 20.3908C22.4643 20.1167 22.6565 19.8825 22.9032 19.7176C23.1499 19.5528 23.4399 19.4649 23.7366 19.4649C24.1344 19.4649 24.5159 19.6229 24.7972 19.9042C25.0785 20.1855 25.2366 20.567 25.2366 20.9649Z" fill="#F9FBFE"/>
</svg>