<svg xmlns="http://www.w3.org/2000/svg" width="22" height="22" viewBox="0 0 22 22" fill="none">
  <path d="M19.25 4.125V6.53125C19.25 6.71359 19.1776 6.88845 19.0486 7.01739C18.9197 7.14632 18.7448 7.21875 18.5625 7.21875C18.3802 7.21875 18.2053 7.14632 18.0764 7.01739C17.9474 6.88845 17.875 6.71359 17.875 6.53125V4.125H15.4688C15.2864 4.125 15.1115 4.05257 14.9826 3.92364C14.8537 3.7947 14.7812 3.61984 14.7812 3.4375C14.7812 3.25516 14.8537 3.0803 14.9826 2.95136C15.1115 2.82243 15.2864 2.75 15.4688 2.75H17.875C18.2397 2.75 18.5894 2.89487 18.8473 3.15273C19.1051 3.41059 19.25 3.76033 19.25 4.125ZM18.5625 14.7812C18.3802 14.7812 18.2053 14.8537 18.0764 14.9826C17.9474 15.1115 17.875 15.2864 17.875 15.4688V17.875H15.4688C15.2864 17.875 15.1115 17.9474 14.9826 18.0764C14.8537 18.2053 14.7812 18.3802 14.7812 18.5625C14.7812 18.7448 14.8537 18.9197 14.9826 19.0486C15.1115 19.1776 15.2864 19.25 15.4688 19.25H17.875C18.2397 19.25 18.5894 19.1051 18.8473 18.8473C19.1051 18.5894 19.25 18.2397 19.25 17.875V15.4688C19.25 15.2864 19.1776 15.1115 19.0486 14.9826C18.9197 14.8537 18.7448 14.7812 18.5625 14.7812ZM6.53125 17.875H4.125V15.4688C4.125 15.2864 4.05257 15.1115 3.92364 14.9826C3.7947 14.8537 3.61984 14.7812 3.4375 14.7812C3.25516 14.7812 3.0803 14.8537 2.95136 14.9826C2.82243 15.1115 2.75 15.2864 2.75 15.4688V17.875C2.75 18.2397 2.89487 18.5894 3.15273 18.8473C3.41059 19.1051 3.76033 19.25 4.125 19.25H6.53125C6.71359 19.25 6.88845 19.1776 7.01739 19.0486C7.14632 18.9197 7.21875 18.7448 7.21875 18.5625C7.21875 18.3802 7.14632 18.2053 7.01739 18.0764C6.88845 17.9474 6.71359 17.875 6.53125 17.875ZM3.4375 7.21875C3.61984 7.21875 3.7947 7.14632 3.92364 7.01739C4.05257 6.88845 4.125 6.71359 4.125 6.53125V4.125H6.53125C6.71359 4.125 6.88845 4.05257 7.01739 3.92364C7.14632 3.7947 7.21875 3.61984 7.21875 3.4375C7.21875 3.25516 7.14632 3.0803 7.01739 2.95136C6.88845 2.82243 6.71359 2.75 6.53125 2.75H4.125C3.76033 2.75 3.41059 2.89487 3.15273 3.15273C2.89487 3.41059 2.75 3.76033 2.75 4.125V6.53125C2.75 6.71359 2.82243 6.88845 2.95136 7.01739C3.0803 7.14632 3.25516 7.21875 3.4375 7.21875ZM8.67969 12.161C7.74579 12.5662 6.93405 13.2084 6.325 14.0241C6.24815 14.1263 6.20129 14.2478 6.18969 14.3751C6.17809 14.5024 6.20221 14.6304 6.25934 14.7448C6.31647 14.8591 6.40434 14.9553 6.5131 15.0224C6.62185 15.0896 6.74718 15.1251 6.875 15.125H15.125C15.2528 15.1251 15.3781 15.0896 15.4869 15.0224C15.5957 14.9553 15.6835 14.8591 15.7407 14.7448C15.7978 14.6304 15.8219 14.5024 15.8103 14.3751C15.7987 14.2478 15.7519 14.1263 15.675 14.0241C15.0659 13.2084 14.2542 12.5662 13.3203 12.161C13.8322 11.6936 14.1909 11.0824 14.3492 10.4075C14.5075 9.73268 14.4581 9.02572 14.2075 8.37944C13.9568 7.73316 13.5167 7.17775 12.9447 6.78612C12.3728 6.39448 11.6958 6.18491 11.0026 6.18491C10.3094 6.18491 9.6324 6.39448 9.06045 6.78612C8.4885 7.17775 8.04832 7.73316 7.79767 8.37944C7.54702 9.02572 7.49762 9.73268 7.65594 10.4075C7.81427 11.0824 8.17292 11.6936 8.68484 12.161H8.67969Z" fill="#F2F2F2"/>
</svg>