<svg width="18" height="15" viewBox="0 0 18 15" fill="none" xmlns="http://www.w3.org/2000/svg">
<g id="Frame 298">
<path id="Vector" d="M17.2282 2.90572C17.1541 2.61578 17.0121 2.34761 16.814 2.12334C16.6158 1.89907 16.3672 1.72513 16.0886 1.61587C13.3925 0.574549 9.10135 0.583987 8.8654 0.583987C8.62945 0.583987 4.33833 0.574549 1.64222 1.61587C1.36361 1.72513 1.11498 1.89907 0.916827 2.12334C0.718678 2.34761 0.576692 2.61578 0.502584 2.90572C0.298882 3.69065 0.0566406 5.12522 0.0566406 7.50515C0.0566406 9.88509 0.298882 11.3197 0.502584 12.1046C0.576581 12.3947 0.718517 12.663 0.916673 12.8874C1.11483 13.1118 1.36352 13.2859 1.64222 13.3952C4.22507 14.3917 8.26766 14.4263 8.81349 14.4263H8.91731C9.46314 14.4263 13.5081 14.3917 16.0886 13.3952C16.3673 13.2859 16.616 13.1118 16.8141 12.8874C17.0123 12.663 17.1542 12.3947 17.2282 12.1046C17.4319 11.3181 17.6742 9.88509 17.6742 7.50515C17.6742 5.12522 17.4319 3.69065 17.2282 2.90572ZM11.5568 7.76706L7.78161 10.2838C7.73422 10.3155 7.67913 10.3336 7.62223 10.3364C7.56533 10.3391 7.50874 10.3264 7.45852 10.2995C7.4083 10.2726 7.36631 10.2326 7.33706 10.1837C7.3078 10.1348 7.29237 10.0789 7.29241 10.0219V4.98837C7.29237 4.9314 7.3078 4.87549 7.33706 4.8266C7.36631 4.77772 7.4083 4.7377 7.45852 4.71081C7.50874 4.68392 7.56533 4.67118 7.62223 4.67393C7.67913 4.67669 7.73422 4.69484 7.78161 4.72646L11.5568 7.24325C11.5999 7.27197 11.6353 7.3109 11.6598 7.3566C11.6843 7.40229 11.6971 7.45332 11.6971 7.50515C11.6971 7.55699 11.6843 7.60802 11.6598 7.65371C11.6353 7.6994 11.5999 7.73834 11.5568 7.76706Z" fill="#060640"/>
</g>
</svg>
