<svg xmlns="http://www.w3.org/2000/svg" width="25" height="29" viewBox="0 0 25 29" fill="none">
<path opacity="0.2" d="M19.6756 9.07252H14.5118V3.90869L19.6756 9.07252Z" fill="white"/>
<path d="M17.7027 21.4892H16.2273C16.0316 21.4892 15.844 21.5669 15.7057 21.7052C15.5673 21.8436 15.4896 22.0312 15.4896 22.2269V27.3907C15.4896 27.5863 15.5673 27.774 15.7057 27.9123C15.844 28.0507 16.0316 28.1284 16.2273 28.1284C16.4229 28.1284 16.6106 28.0507 16.7489 27.9123C16.8873 27.774 16.965 27.5863 16.965 27.3907V26.653H17.7027C18.3874 26.653 19.0442 26.381 19.5284 25.8968C20.0126 25.4126 20.2846 24.7558 20.2846 24.0711C20.2846 23.3863 20.0126 22.7296 19.5284 22.2454C19.0442 21.7612 18.3874 21.4892 17.7027 21.4892ZM17.7027 25.1776H16.965V22.9645H17.7027C17.9961 22.9645 18.2776 23.0811 18.4851 23.2886C18.6926 23.4962 18.8092 23.7776 18.8092 24.0711C18.8092 24.3646 18.6926 24.646 18.4851 24.8535C18.2776 25.061 17.9961 25.1776 17.7027 25.1776ZM13.2765 22.2269V27.3907C13.2765 27.5863 13.1988 27.774 13.0605 27.9123C12.9221 28.0507 12.7345 28.1284 12.5388 28.1284C12.3432 28.1284 12.1556 28.0507 12.0172 27.9123C11.8789 27.774 11.8011 27.5863 11.8011 27.3907V22.2269C11.8011 22.0312 11.8789 21.8436 12.0172 21.7052C12.1556 21.5669 12.3432 21.4892 12.5388 21.4892C12.7345 21.4892 12.9221 21.5669 13.0605 21.7052C13.1988 21.8436 13.2765 22.0312 13.2765 22.2269ZM9.58808 27.3907C9.58808 27.5863 9.51036 27.774 9.37202 27.9123C9.23367 28.0507 9.04604 28.1284 8.85039 28.1284H5.89963C5.76958 28.1295 5.64153 28.0963 5.52846 28.032C5.4154 27.9678 5.32133 27.8748 5.2558 27.7624C5.19026 27.6501 5.1556 27.5224 5.15531 27.3923C5.15502 27.2623 5.18912 27.1345 5.25416 27.0218L7.57419 22.9645H5.89963C5.70399 22.9645 5.51635 22.8868 5.37801 22.7485C5.23967 22.6101 5.16194 22.4225 5.16194 22.2269C5.16194 22.0312 5.23967 21.8436 5.37801 21.7052C5.51635 21.5669 5.70399 21.4892 5.89963 21.4892H8.85039C8.98044 21.488 9.10849 21.5212 9.22156 21.5855C9.33463 21.6498 9.4287 21.7428 9.49423 21.8551C9.55976 21.9675 9.59443 22.0951 9.59472 22.2252C9.595 22.3553 9.5609 22.4831 9.49587 22.5957L7.17123 26.653H8.85039C9.04604 26.653 9.23367 26.7307 9.37202 26.8691C9.51036 27.0074 9.58808 27.195 9.58808 27.3907ZM20.4376 15.8034L15.2738 10.6396C15.2053 10.5711 15.1239 10.5168 15.0343 10.4798C14.9448 10.4428 14.8488 10.4238 14.7519 10.4238H5.89963C5.50834 10.4238 5.13307 10.5793 4.85638 10.856C4.5797 11.1326 4.42426 11.5079 4.42426 11.8992V18.5384C4.42426 18.7341 4.50198 18.9217 4.64032 19.06C4.77866 19.1984 4.9663 19.2761 5.16194 19.2761C5.35759 19.2761 5.54523 19.1984 5.68357 19.06C5.82191 18.9217 5.89963 18.7341 5.89963 18.5384V11.8992H14.0142V16.3253C14.0142 16.521 14.0919 16.7086 14.2303 16.847C14.3686 16.9853 14.5563 17.063 14.7519 17.063H19.178V18.5384C19.178 18.7341 19.2558 18.9217 19.3941 19.06C19.5324 19.1984 19.7201 19.2761 19.9157 19.2761C20.1114 19.2761 20.299 19.1984 20.4374 19.06C20.5757 18.9217 20.6534 18.7341 20.6534 18.5384V16.3253C20.6535 16.2284 20.6345 16.1325 20.5975 16.0429C20.5604 15.9534 20.5061 15.872 20.4376 15.8034ZM15.4896 15.5877V12.9421L18.1351 15.5877H15.4896Z" fill="white"/>
</svg>