<svg width="226" height="195" viewBox="0 0 226 195" fill="none" xmlns="http://www.w3.org/2000/svg">
<path d="M199.687 96.736C199.687 96.736 159.128 144.102 119.649 154.16C88.0306 162.215 60.316 153.206 60.316 153.206" stroke="url(#paint0_linear_1_16)" stroke-width="2.15971"/>
<ellipse cx="60.8069" cy="154.288" rx="4.04159" ry="4.35836" transform="rotate(-161.574 60.8069 154.288)" fill="#01E4CB"/>
<rect x="36.4919" width="192" height="40" rx="20" transform="rotate(10.7952 36.4919 0)" fill="#CCE1FA"/>
<g clip-path="url(#clip0_1_16)">
<path d="M57.8499 23.7964C57.7226 24.4643 57.4001 25.0793 56.9232 25.5639C56.4463 26.0484 55.8364 26.3807 55.1706 26.5186C54.5049 26.6565 53.8132 26.5939 53.183 26.3388C52.5529 26.0836 52.0125 25.6473 51.6303 25.085C51.2482 24.5227 51.0413 23.8597 51.0359 23.1799C51.0305 22.5 51.2268 21.8338 51.6 21.2656C51.9733 20.6973 52.5066 20.2524 53.1326 19.9873C53.7587 19.7221 54.4493 19.6486 55.1171 19.7759C56.0122 19.9476 56.8025 20.4674 57.3149 21.2211C57.8272 21.9748 58.0196 22.901 57.8499 23.7964ZM62.3374 25.2883C62.0364 26.8669 61.2741 28.3207 60.1469 29.466C59.0196 30.6113 57.5781 31.3966 56.0045 31.7226C54.431 32.0486 52.7961 31.9006 51.3066 31.2975C49.8171 30.6943 48.5399 29.663 47.6366 28.334C46.7332 27.005 46.2442 25.4379 46.2315 23.831C46.2187 22.2241 46.6828 20.6495 47.5649 19.3063C48.4471 17.9631 49.7077 16.9116 51.1874 16.2849C52.6672 15.6582 54.2995 15.4843 55.878 15.7853C57.9937 16.191 59.8619 17.4194 61.0729 19.201C62.2839 20.9826 62.7387 23.1718 62.3374 25.2883ZM61.1095 25.0542C61.2819 24.145 61.2691 23.2104 61.072 22.3063C60.8748 21.4022 60.4974 20.5471 59.9622 19.7922C59.427 19.0373 58.745 18.3981 57.9571 17.9128C57.1692 17.4275 56.2915 17.1061 55.3766 16.9678C51.7354 16.4182 48.2789 18.8792 47.5992 22.498C47.2887 24.1452 47.5932 25.8491 48.4549 27.2868C49.0247 26.7245 49.6976 26.2774 50.4367 25.9698C50.4997 25.9435 50.5696 25.9386 50.6357 25.9558C50.7018 25.973 50.7604 26.0114 50.8027 26.0651C51.4994 26.9458 52.4899 27.5462 53.593 27.7566C54.6961 27.9669 55.8381 27.7731 56.81 27.2105C56.8691 27.1761 56.9377 27.162 57.0055 27.1703C57.0733 27.1787 57.1365 27.209 57.1854 27.2566C57.7603 27.8145 58.2222 28.478 58.5458 29.2109C59.8824 28.1876 60.7951 26.7078 61.1095 25.0542Z" fill="#E44501"/>
</g>
<path d="M77.7212 30.3809C77.632 30.8491 77.4349 31.235 77.1299 31.5386C76.825 31.8422 76.4496 32.053 76.0036 32.1709C75.5661 32.2904 75.1048 32.3039 74.6195 32.2113L70.316 31.3908L72.0448 22.3241L76.5526 23.1836C76.9783 23.2648 77.3224 23.4495 77.5851 23.7378C77.8579 24.0192 78.041 24.3541 78.1346 24.7425C78.2383 25.124 78.2537 25.5064 78.1806 25.8894C78.0962 26.3321 77.9017 26.7274 77.5972 27.0752C77.3028 27.4161 76.9292 27.6404 76.4763 27.7481C76.9664 28.0004 77.3207 28.3635 77.5391 28.8375C77.7677 29.3045 77.8284 29.819 77.7212 30.3809ZM76.5981 29.955C76.6517 29.6741 76.6374 29.4022 76.5551 29.1395C76.4814 28.8784 76.3519 28.6552 76.1667 28.4699C75.9899 28.2862 75.7654 28.1684 75.4929 28.1165L72.2494 27.498L71.6553 30.6139L74.8094 31.2153C75.0904 31.2688 75.3553 31.2444 75.6043 31.1418C75.8617 31.041 76.0762 30.8877 76.2477 30.6822C76.4294 30.4698 76.5462 30.2274 76.5981 29.955ZM73.0042 23.5393L72.4271 26.5658L75.3131 27.1161C75.5856 27.168 75.8369 27.1454 76.0672 27.0481C76.306 26.9525 76.5069 26.8011 76.6699 26.594C76.8415 26.3885 76.9532 26.1495 77.0051 25.8771C77.0603 25.5876 77.0494 25.3208 76.9725 25.0768C76.9056 24.8258 76.783 24.6128 76.6047 24.4376C76.4348 24.264 76.2222 24.1529 75.9668 24.1042L73.0042 23.5393ZM78.6918 32.9878L79.9604 26.3347L81.0842 26.549L80.1029 31.6952L84.8154 27.2472L85.837 27.442L84.566 34.1079L83.4422 33.8936L84.404 28.8495L79.7645 33.1923L78.6918 32.9878ZM88.426 34.9365C87.779 34.8132 87.2526 34.5893 86.8469 34.2649C86.4513 33.9336 86.1757 33.5281 86.0201 33.0485L87.0174 32.8151C87.1187 33.1168 87.2952 33.371 87.5469 33.5778C87.8072 33.7863 88.1416 33.9294 88.5503 34.0073C89.0355 34.0999 89.4389 34.0665 89.7604 33.9072C90.0819 33.748 90.2768 33.4896 90.345 33.132C90.4067 32.8085 90.3412 32.5269 90.1487 32.2873C89.9663 32.0408 89.6716 31.8743 89.2646 31.7879L88.5878 31.6588L88.729 30.9182L89.4441 31.0545C89.6229 31.0886 89.7885 31.0761 89.941 31.0169C90.1036 30.9509 90.2378 30.8485 90.3436 30.7099C90.458 30.5729 90.533 30.4107 90.5687 30.2234C90.6255 29.9255 90.5646 29.6668 90.3858 29.4474C90.2087 29.2196 89.9073 29.0651 89.4816 28.9839C89.1326 28.9173 88.8259 28.9294 88.5615 29.0202C88.3057 29.1126 88.0795 29.2812 87.8828 29.526L87.1149 28.9032C87.404 28.5436 87.7697 28.2913 88.212 28.1463C88.6645 27.9943 89.1632 27.9703 89.708 28.0742C90.1422 28.157 90.5115 28.3024 90.8159 28.5104C91.1305 28.7116 91.3562 28.962 91.4932 29.2616C91.6387 29.5628 91.6757 29.9007 91.6043 30.2753C91.5442 30.5903 91.4116 30.8694 91.2064 31.1126C91.0114 31.3489 90.7562 31.5076 90.4407 31.5886C90.8181 31.7841 91.0848 32.0511 91.2409 32.3897C91.3985 32.7197 91.4392 33.0848 91.3629 33.4849C91.285 33.8935 91.1077 34.2215 90.8312 34.4687C90.5547 34.716 90.2102 34.8797 89.7979 34.9599C89.3856 35.0401 88.9283 35.0323 88.426 34.9365ZM92.3472 35.5915L93.6182 28.9256L94.7419 29.1399L94.216 31.8982L97.6894 32.5605L98.2154 29.8022L99.3391 30.0165L98.0681 36.6824L96.9444 36.4681L97.4995 33.5566L94.0261 32.8943L93.4709 35.8058L92.3472 35.5915ZM99.7238 34.9997C99.805 34.5741 99.994 34.2307 100.291 33.9697C100.598 33.7018 100.98 33.5233 101.438 33.4342C101.897 33.345 102.407 33.3541 102.968 33.4612C103.266 33.518 103.577 33.6036 103.899 33.718C104.223 33.8239 104.503 33.948 104.741 34.0903L104.833 33.6051C104.931 33.0943 104.854 32.6649 104.603 32.317C104.353 31.9606 103.947 31.7289 103.385 31.6217C103.019 31.5519 102.653 31.5527 102.286 31.624C101.93 31.6883 101.541 31.8083 101.119 31.9837L100.862 31.1141C101.353 30.8989 101.829 30.7603 102.291 30.6984C102.754 30.628 103.22 30.6374 103.688 30.7266C104.54 30.889 105.167 31.2556 105.57 31.8265C105.974 32.3889 106.096 33.0915 105.935 33.9343L105.397 36.7564C105.371 36.8926 105.377 36.9997 105.415 37.0775C105.464 37.1485 105.551 37.2004 105.677 37.2332L105.511 38.1016C105.397 38.0975 105.297 38.0916 105.21 38.0839C105.132 38.0778 105.067 38.0699 105.016 38.0602C104.752 38.0098 104.566 37.8993 104.457 37.7286C104.357 37.5595 104.314 37.3925 104.328 37.2275L104.383 36.8012C104.022 37.1206 103.588 37.3378 103.081 37.4529C102.574 37.5679 102.09 37.5816 101.63 37.494C101.188 37.4095 100.809 37.2447 100.494 36.9993C100.181 36.7455 99.9553 36.4467 99.8179 36.1029C99.6821 35.7505 99.6508 35.3828 99.7238 34.9997ZM103.976 36.3001C104.1 36.2004 104.204 36.0966 104.286 35.9888C104.37 35.8724 104.42 35.7717 104.437 35.6866L104.595 34.8565C104.35 34.704 104.088 34.5747 103.809 34.4684C103.531 34.3536 103.251 34.2694 102.97 34.2159C102.4 34.1071 101.914 34.1336 101.512 34.2953C101.121 34.45 100.888 34.7232 100.814 35.1149C100.773 35.3277 100.789 35.5468 100.86 35.7722C100.942 35.9908 101.082 36.185 101.279 36.3549C101.484 36.5264 101.753 36.6438 102.085 36.7071C102.434 36.7737 102.779 36.7689 103.12 36.6927C103.462 36.6081 103.748 36.4772 103.976 36.3001ZM109.853 39.0486C109.334 38.9495 108.884 38.7624 108.504 38.487C108.133 38.2133 107.829 37.8863 107.593 37.5059C107.367 37.1187 107.212 36.7054 107.128 36.2659C107.054 35.8195 107.06 35.375 107.144 34.9323C107.225 34.5067 107.377 34.1033 107.6 33.7223C107.831 33.3428 108.122 33.019 108.473 32.7507C108.826 32.4738 109.229 32.2815 109.682 32.1738C110.145 32.0592 110.649 32.0538 111.193 32.1577C111.849 32.2827 112.384 32.5303 112.799 32.9005C113.213 33.2707 113.496 33.7084 113.647 34.2136L112.706 34.4974C112.566 34.0737 112.346 33.7493 112.044 33.5243C111.752 33.3008 111.418 33.1534 111.044 33.082C110.609 32.9992 110.211 33.0291 109.849 33.1717C109.488 33.3059 109.183 33.5168 108.934 33.8046C108.687 34.0839 108.503 34.3974 108.384 34.7453L111.257 35.2931L111.111 36.0593L108.238 35.5115C108.204 35.9197 108.257 36.3136 108.396 36.6931C108.537 37.064 108.754 37.3833 109.048 37.651C109.342 37.9101 109.694 38.0786 110.102 38.1565C110.477 38.2279 110.852 38.2067 111.226 38.0929C111.611 37.9721 111.946 37.7405 112.232 37.398L113.059 37.9923C112.706 38.4544 112.234 38.7748 111.645 38.9534C111.063 39.1337 110.466 39.1654 109.853 39.0486ZM115.743 40.0525L116.824 34.3827L114.525 33.9444L114.715 32.9483L120.436 34.0392L120.246 35.0352L117.948 34.5969L116.867 40.2668L115.743 40.0525ZM120.281 40.9179L121.552 34.252L122.676 34.4662L122.243 36.7393L123.903 37.0558C124.686 37.2052 125.24 37.5181 125.563 37.9945C125.897 38.464 126.004 39.018 125.882 39.6565C125.801 40.0822 125.638 40.4482 125.394 40.7547C125.159 41.0627 124.853 41.2822 124.475 41.4131C124.097 41.544 123.653 41.5607 123.142 41.4633L120.281 40.9179ZM121.573 40.251L123.157 40.553C123.472 40.613 123.734 40.6013 123.944 40.5178C124.164 40.4275 124.341 40.2891 124.473 40.1026C124.606 39.9161 124.695 39.7037 124.74 39.4653C124.784 39.2355 124.782 39.0145 124.734 38.8025C124.687 38.5905 124.576 38.4062 124.403 38.2497C124.23 38.0931 123.973 37.9824 123.633 37.9175L122.075 37.6204L121.573 40.251ZM129.605 42.8279C129.102 42.7322 128.66 42.5551 128.277 42.2968C127.904 42.0316 127.595 41.708 127.35 41.3261C127.114 40.9457 126.95 40.5308 126.86 40.0812C126.777 39.6332 126.781 39.1751 126.87 38.7068C126.99 38.0768 127.24 37.529 127.62 37.0632C128 36.5975 128.475 36.2601 129.044 36.051C129.615 35.8334 130.237 35.7887 130.909 35.917C131.565 36.0419 132.107 36.2997 132.535 36.6902C132.974 37.0738 133.265 37.5352 133.409 38.0744L132.245 38.2098C132.135 37.8623 131.943 37.5743 131.669 37.3456C131.397 37.1083 131.073 36.954 130.699 36.8826C130.29 36.8047 129.895 36.8397 129.514 36.9876C129.141 37.1371 128.821 37.3805 128.554 37.7177C128.289 38.0465 128.11 38.4492 128.019 38.926C127.93 39.3942 127.947 39.8385 128.07 40.259C128.203 40.6725 128.414 41.0216 128.704 41.3063C129.002 41.5925 129.356 41.7746 129.764 41.8525C130.028 41.9029 130.288 41.9039 130.544 41.8557C130.809 41.8092 131.045 41.7263 131.253 41.6071C131.472 41.4811 131.633 41.3309 131.736 41.1566L132.771 41.698C132.573 41.9956 132.31 42.2453 131.98 42.4471C131.661 42.642 131.295 42.7753 130.885 42.847C130.483 42.9203 130.056 42.914 129.605 42.8279ZM133.19 43.3791L135.591 41.0578C135.173 40.8899 134.863 40.619 134.661 40.2452C134.46 39.8629 134.412 39.395 134.518 38.8416C134.594 38.4415 134.755 38.1061 135.001 37.8353C135.247 37.5645 135.553 37.3714 135.919 37.256C136.293 37.1421 136.706 37.1282 137.158 37.2142L139.89 37.7353L138.617 44.414L137.493 44.1997L137.97 41.6968L136.668 41.4484L134.428 43.6153L133.19 43.3791ZM136.596 40.5746L138.129 40.8668L138.599 38.4022L137.194 38.1343C136.794 38.058 136.453 38.1121 136.17 38.2965C135.89 38.4724 135.716 38.7348 135.65 39.0839C135.583 39.4329 135.624 39.7496 135.773 40.0338C135.93 40.3196 136.205 40.4999 136.596 40.5746ZM142.624 46.8058L143.113 44.2391L143.254 44.2659C143.441 44.3016 143.622 44.2787 143.796 44.1973C143.979 44.1174 144.156 43.9527 144.327 43.703C144.509 43.4464 144.684 43.0828 144.853 42.6121C145.022 42.1415 145.191 41.534 145.359 40.7897L145.791 38.8736L150.324 39.738L149.243 45.4078L150.15 45.5807L149.66 48.1475L148.664 47.9576L148.964 46.3869L143.92 45.4251L143.62 46.9958L142.624 46.8058ZM144.825 44.5654L148.119 45.1936L149.01 40.5198L146.597 40.0596L146.361 41.0866C146.198 41.8054 146.031 42.4044 145.86 42.8835C145.699 43.3558 145.532 43.7253 145.357 43.992C145.192 44.2604 145.014 44.4515 144.825 44.5654ZM154.134 47.5051C153.632 47.4093 153.189 47.2323 152.806 46.974C152.433 46.7088 152.124 46.3895 151.877 46.016C151.641 45.6357 151.478 45.2207 151.387 44.7711C151.305 44.3231 151.308 43.865 151.397 43.3968C151.518 42.7668 151.772 42.2197 152.16 41.7556C152.549 41.2915 153.028 40.9506 153.599 40.7331C154.179 40.5171 154.8 40.4724 155.464 40.599C156.137 40.7273 156.689 41.0002 157.121 41.4179C157.564 41.8286 157.871 42.3196 158.045 42.8909C158.228 43.4552 158.263 44.0354 158.15 44.6313C158.133 44.7165 158.113 44.8008 158.088 44.8843C158.074 44.9609 158.058 45.0197 158.041 45.0606L152.512 44.0063C152.463 44.447 152.509 44.8571 152.648 45.2366C152.798 45.6092 153.02 45.925 153.314 46.1841C153.611 46.4347 153.95 46.5966 154.333 46.6696C154.742 46.7475 155.145 46.7184 155.541 46.5823C155.946 46.4477 156.248 46.2275 156.448 45.9214L157.367 46.3746C157.161 46.6706 156.889 46.9186 156.551 47.1188C156.221 47.3206 155.846 47.4566 155.427 47.5266C155.017 47.5983 154.586 47.5911 154.134 47.5051ZM152.622 43.2201L157.168 44.0869C157.217 43.6462 157.167 43.2396 157.017 42.867C156.868 42.4944 156.645 42.1828 156.348 41.9322C156.052 41.6816 155.704 41.5181 155.304 41.4418C154.912 41.3672 154.532 41.3918 154.165 41.5158C153.797 41.6398 153.475 41.8475 153.199 42.1389C152.931 42.432 152.739 42.7924 152.622 43.2201ZM162.318 49.0654C161.773 48.9616 161.313 48.7328 160.94 48.3792C160.566 48.0256 160.296 47.6167 160.128 47.1525L159.359 51.1878L158.235 50.9735L160.025 41.5876L161.021 41.7776L160.782 43.029C161.124 42.6707 161.531 42.4087 162.004 42.243C162.478 42.0687 162.967 42.0295 163.469 42.1253C163.929 42.2129 164.332 42.3869 164.68 42.6473C165.027 42.9076 165.31 43.2263 165.53 43.6034C165.749 43.9804 165.895 44.3922 165.969 44.8385C166.053 45.278 166.052 45.7234 165.966 46.1746C165.846 46.8045 165.607 47.3591 165.251 47.8382C164.904 48.319 164.474 48.6738 163.963 48.9028C163.454 49.1232 162.905 49.1775 162.318 49.0654ZM162.158 48.0292C162.49 48.0925 162.801 48.0812 163.091 47.9953C163.391 47.9025 163.656 47.7591 163.887 47.5649C164.129 47.3639 164.329 47.1241 164.488 46.8456C164.647 46.5672 164.756 46.2704 164.816 45.9554C164.88 45.6234 164.88 45.297 164.818 44.9764C164.764 44.6573 164.652 44.3625 164.483 44.0921C164.323 43.8233 164.114 43.5982 163.858 43.417C163.611 43.2288 163.326 43.1039 163.003 43.0422C162.799 43.0032 162.578 43.001 162.342 43.0354C162.115 43.0714 161.89 43.1431 161.666 43.2505C161.444 43.3494 161.248 43.4753 161.078 43.6281C160.908 43.7809 160.782 43.9554 160.7 44.1516L160.338 46.0543C160.41 46.3681 160.53 46.6645 160.697 46.9434C160.865 47.2224 161.075 47.461 161.328 47.6593C161.583 47.8491 161.86 47.9724 162.158 48.0292ZM166.25 49.6829L169.357 46.7153L167.738 43.0584L169.003 43.2995L170.39 46.4358L171.105 46.5721L171.633 43.8011L172.782 44.0202L172.254 46.7913L172.995 46.9325L175.4 44.5194L176.677 44.7629L173.826 47.5675L175.636 51.4726L174.346 51.2267L172.807 47.9158L172.067 47.7746L171.511 50.6861L170.362 50.467L170.917 47.5554L170.202 47.4191L167.54 49.9289L166.25 49.6829ZM176.83 49.7018C176.911 49.2762 177.1 48.9328 177.397 48.6718C177.704 48.4039 178.086 48.2254 178.544 48.1363C179.003 48.0472 179.513 48.0562 180.074 48.1633C180.372 48.2201 180.682 48.3057 181.005 48.4201C181.329 48.526 181.609 48.6501 181.847 48.7924L181.939 48.3072C182.037 47.7964 181.96 47.3671 181.709 47.0192C181.459 46.6628 181.053 46.431 180.491 46.3239C180.125 46.2541 179.759 46.2548 179.392 46.3261C179.036 46.3905 178.647 46.5104 178.225 46.6859L177.968 45.8162C178.459 45.601 178.935 45.4625 179.397 45.4005C179.86 45.3301 180.326 45.3395 180.794 45.4288C181.646 45.5911 182.273 45.9577 182.676 46.5286C183.08 47.091 183.202 47.7936 183.041 48.6364L182.503 51.4585C182.477 51.5948 182.483 51.7018 182.521 51.7796C182.57 51.8506 182.657 51.9025 182.783 51.9354L182.617 52.8037C182.503 52.7996 182.403 52.7937 182.316 52.786C182.238 52.7799 182.173 52.772 182.122 52.7623C181.858 52.712 181.672 52.6014 181.563 52.4307C181.463 52.2617 181.42 52.0946 181.434 51.9296L181.489 51.5034C181.128 51.8227 180.694 52.04 180.187 52.155C179.68 52.27 179.196 52.2837 178.736 52.1961C178.294 52.1117 177.915 51.9468 177.6 51.7015C177.287 51.4476 177.061 51.1488 176.924 50.805C176.788 50.4526 176.757 50.0849 176.83 49.7018ZM181.081 51.0022C181.206 50.9025 181.31 50.7987 181.392 50.6909C181.476 50.5746 181.526 50.4738 181.543 50.3887L181.701 49.5586C181.456 49.4062 181.194 49.2768 180.915 49.1705C180.637 49.0557 180.357 48.9716 180.076 48.918C179.506 48.8092 179.02 48.8357 178.618 48.9974C178.227 49.1522 177.994 49.4254 177.92 49.817C177.879 50.0298 177.895 50.2489 177.966 50.4744C178.048 50.6929 178.187 50.8871 178.384 51.057C178.59 51.2285 178.859 51.346 179.191 51.4093C179.54 51.4758 179.885 51.471 180.226 51.3949C180.568 51.3102 180.854 51.1793 181.081 51.0022ZM184.044 53.0757L185.315 46.4098L188.763 47.0672C189.163 47.1435 189.479 47.2877 189.712 47.4998C189.947 47.7034 190.105 47.9407 190.185 48.212C190.275 48.4848 190.292 48.7617 190.239 49.0427C190.171 49.4002 190.024 49.7075 189.798 49.9645C189.575 50.213 189.287 50.3787 188.936 50.4618C189.298 50.6455 189.571 50.9048 189.754 51.2397C189.939 51.5661 189.991 51.9379 189.912 52.355C189.84 52.7296 189.69 53.0318 189.461 53.2616C189.232 53.4914 188.942 53.6479 188.591 53.7309C188.241 53.8055 187.853 53.8021 187.428 53.721L184.044 53.0757ZM185.267 52.4885L187.553 52.9244C187.758 52.9633 187.95 52.9471 188.132 52.8758C188.321 52.8061 188.479 52.6951 188.605 52.5427C188.731 52.3903 188.812 52.2204 188.848 52.0331C188.887 51.8288 188.875 51.6368 188.812 51.4572C188.76 51.2707 188.661 51.1152 188.517 50.9907C188.384 50.8594 188.215 50.7742 188.01 50.7352L185.686 50.2921L185.267 52.4885ZM185.827 49.5514L187.909 49.9483C188.113 49.9873 188.302 49.9703 188.475 49.8973C188.649 49.8159 188.795 49.6982 188.912 49.5441C189.03 49.3901 189.107 49.2194 189.142 49.0321C189.196 48.7512 189.149 48.4907 189 48.2507C188.86 48.0123 188.646 47.8655 188.356 47.8103L186.237 47.4061L185.827 49.5514ZM193.89 55.0855C193.388 54.9897 192.949 54.8135 192.575 54.5568C192.202 54.2916 191.896 53.973 191.658 53.6012C191.422 53.2209 191.263 52.8068 191.181 52.3588C191.098 51.9108 191.101 51.4569 191.189 50.9972C191.278 50.529 191.443 50.1017 191.685 49.7154C191.926 49.3291 192.226 49.0068 192.584 48.7487C192.943 48.482 193.344 48.2982 193.787 48.1973C194.24 48.0896 194.713 48.0828 195.207 48.1769C195.709 48.2727 196.147 48.4532 196.52 48.7184C196.895 48.9751 197.2 49.2936 197.436 49.6739C197.683 50.0474 197.847 50.4581 197.929 50.9061C198.011 51.3541 198.008 51.8122 197.919 52.2804C197.831 52.7401 197.666 53.1631 197.425 53.5494C197.184 53.9357 196.883 54.2622 196.524 54.5289C196.166 54.7871 195.76 54.9701 195.307 55.0778C194.865 55.1787 194.392 55.1812 193.89 55.0855ZM192.336 51.2291C192.248 51.6888 192.266 52.1247 192.391 52.5366C192.524 52.9501 192.735 53.2992 193.025 53.5839C193.316 53.86 193.666 54.037 194.075 54.115C194.484 54.1929 194.875 54.1528 195.249 53.9948C195.632 53.8384 195.957 53.5915 196.224 53.2543C196.502 52.9101 196.684 52.5082 196.772 52.0485C196.859 51.5888 196.837 51.1521 196.704 50.7386C196.579 50.3267 196.368 49.9776 196.07 49.6913C195.78 49.4066 195.431 49.2254 195.022 49.1474C194.613 49.0695 194.221 49.1138 193.845 49.2804C193.471 49.4384 193.146 49.6853 192.87 50.0209C192.603 50.3581 192.425 50.7609 192.336 51.2291ZM204.127 57.0374C203.539 56.9254 203.044 56.6986 202.642 56.3572C202.239 56.0158 201.944 55.5977 201.756 55.1031C201.57 54.6 201.501 54.0575 201.55 53.4757L200.312 53.2396L199.771 56.0745L198.647 55.8602L199.918 49.1943L201.042 49.4086L200.499 52.2563L201.738 52.4925C201.918 51.918 202.186 51.4354 202.543 51.0447C202.91 50.6471 203.343 50.3678 203.841 50.207C204.339 50.0461 204.874 50.0201 205.444 50.1288C206.117 50.2571 206.665 50.5249 207.091 50.9325C207.517 51.3315 207.813 51.8158 207.978 52.3854C208.143 52.955 208.164 53.5634 208.04 54.2104C207.914 54.8744 207.665 55.4401 207.293 55.9075C206.93 56.3765 206.474 56.7129 205.923 56.9167C205.381 57.1221 204.782 57.1624 204.127 57.0374ZM204.312 56.0668C204.729 56.1464 205.115 56.1098 205.471 55.957C205.826 55.8042 206.128 55.5618 206.377 55.2299C206.627 54.8894 206.799 54.4765 206.891 53.9912C206.989 53.4804 206.979 53.0241 206.861 52.6224C206.754 52.2137 206.558 51.8764 206.273 51.6103C205.997 51.346 205.659 51.1756 205.259 51.0993C204.859 51.023 204.481 51.0613 204.125 51.2141C203.78 51.3599 203.486 51.6039 203.245 51.9461C203.003 52.2882 202.835 52.7061 202.741 53.1999C202.645 53.7022 202.647 54.1568 202.746 54.5639C202.853 54.9726 203.04 55.3083 203.308 55.571C203.586 55.8269 203.92 55.9922 204.312 56.0668Z" fill="#080C1D"/>
<rect y="93.4346" width="106" height="40" rx="20" transform="rotate(-15 0 93.4346)" fill="#F9FBFE"/>
<g clip-path="url(#clip1_1_16)">
<path d="M29.5858 105.566C29.7618 106.222 29.7391 106.916 29.5205 107.56C29.302 108.204 28.8975 108.768 28.3581 109.182C27.8187 109.596 27.1687 109.841 26.4903 109.885C25.8119 109.93 25.1355 109.772 24.5467 109.432C23.9579 109.092 23.4832 108.585 23.1825 107.976C22.8818 107.366 22.7686 106.681 22.8574 106.007C22.9461 105.332 23.2327 104.7 23.681 104.189C24.1293 103.678 24.7191 103.311 25.3758 103.135C26.2564 102.9 27.1941 103.024 27.9834 103.48C28.7727 103.935 29.349 104.685 29.5858 105.566ZM34.2754 104.956C34.6913 106.508 34.6376 108.149 34.121 109.671C33.6045 111.192 32.6483 112.527 31.3734 113.505C30.0985 114.483 28.5622 115.061 26.9586 115.167C25.3551 115.272 23.7564 114.899 22.3647 114.095C20.973 113.292 19.8509 112.094 19.1401 110.653C18.4294 109.211 18.162 107.592 18.3717 105.998C18.5815 104.405 19.259 102.91 20.3185 101.702C21.3781 100.494 22.7721 99.6267 24.3243 99.2108C26.4057 98.6554 28.6224 98.9485 30.4879 100.026C32.3535 101.103 33.7156 102.876 34.2754 104.956ZM33.068 105.28C32.8275 104.386 32.4093 103.55 31.8384 102.822C31.2674 102.094 30.5555 101.488 29.7451 101.041C28.9348 100.594 28.0426 100.316 27.1221 100.222C26.2015 100.127 25.2714 100.22 24.3874 100.494C20.8699 101.583 18.8288 105.303 19.7915 108.857C20.2288 110.475 21.2444 111.877 22.6458 112.796C22.9142 112.042 23.3254 111.347 23.857 110.748C23.9023 110.697 23.9631 110.662 24.0301 110.649C24.0971 110.636 24.1666 110.645 24.228 110.675C25.2385 111.165 26.3917 111.274 27.4764 110.983C28.5611 110.693 29.5049 110.021 30.1352 109.092C30.1734 109.035 30.2291 108.993 30.2937 108.971C30.3584 108.949 30.4285 108.949 30.4932 108.97C31.2536 109.222 31.9583 109.619 32.5685 110.138C33.3266 108.635 33.5044 106.905 33.068 105.28Z" fill="#E44501"/>
</g>
<path d="M47.7468 106.072C47.119 106.241 46.5161 106.268 45.9381 106.153C45.3602 106.039 44.8257 105.819 44.3346 105.493C43.8496 105.156 43.4349 104.747 43.0904 104.265C42.7437 103.775 42.494 103.245 42.3415 102.676C42.1823 102.081 42.1355 101.488 42.2012 100.896C42.2731 100.294 42.4413 99.7329 42.7058 99.2134C42.9765 98.6833 43.3347 98.2284 43.7803 97.8488C44.2236 97.4608 44.7467 97.1861 45.3494 97.0246C45.9773 96.8564 46.5813 96.8336 47.1615 96.9563C47.7417 97.079 48.2742 97.3086 48.7592 97.6452C49.2442 97.9818 49.6589 98.3911 50.0034 98.873C50.3479 99.355 50.5952 99.8764 50.7455 100.437C50.9048 101.032 50.9527 101.629 50.8892 102.229C50.8235 102.821 50.6553 103.382 50.3846 103.912C50.12 104.432 49.765 104.881 49.3194 105.261C48.8737 105.64 48.3496 105.911 47.7468 106.072ZM43.4842 102.369C43.6053 102.822 43.7943 103.242 44.051 103.631C44.3138 104.009 44.6229 104.325 44.9783 104.58C45.3336 104.835 45.7255 105.008 46.1538 105.1C46.5821 105.191 47.0264 105.175 47.4869 105.052C47.964 104.924 48.364 104.709 48.6869 104.407C49.0098 104.105 49.2561 103.752 49.4259 103.348C49.6041 102.941 49.7041 102.511 49.7258 102.056C49.756 101.6 49.7139 101.158 49.5995 100.731C49.4784 100.279 49.2864 99.8637 49.0235 99.4855C48.7691 99.1051 48.46 98.7886 48.0962 98.5362C47.7386 98.2731 47.3468 98.1 46.9207 98.0167C46.5008 97.9229 46.0648 97.9365 45.6128 98.0576C45.1356 98.1855 44.7356 98.4004 44.4127 98.7022C44.0876 98.9957 43.8359 99.3457 43.6578 99.7524C43.488 100.157 43.388 100.587 43.3578 101.044C43.3254 101.492 43.3676 101.934 43.4842 102.369ZM57.074 106.373L56.3573 103.698L56.1061 103.765C55.4448 103.942 54.831 103.945 54.2647 103.774C53.7068 103.601 53.2319 103.302 52.84 102.877C52.4482 102.453 52.1738 101.948 52.0167 101.362C51.8575 100.767 51.8414 100.188 51.9686 99.625C52.1041 99.0593 52.3701 98.5619 52.7665 98.1327C53.1713 97.7012 53.7002 97.398 54.3532 97.223L54.6043 97.1557L53.9011 94.5313L55.0061 94.2352L55.7093 96.8596L55.973 96.789C56.626 96.614 57.2314 96.6133 57.7893 96.7868C58.3556 96.9581 58.8347 97.2559 59.2266 97.6803C59.6268 98.1024 59.9065 98.6107 60.0658 99.205C60.2228 99.791 60.2377 100.366 60.1106 100.929C59.9834 101.493 59.7174 101.99 59.3126 102.422C58.9162 102.851 58.3873 103.154 57.726 103.331L57.4623 103.402L58.179 106.077L57.074 106.373ZM55.8639 102.861L56.1653 102.78L54.8968 98.0464L54.5954 98.1271C54.1852 98.237 53.846 98.4446 53.5779 98.7497C53.3158 99.0442 53.141 99.3961 53.0533 99.8055C52.9655 100.215 52.9811 100.641 53.1 101.085C53.2189 101.529 53.4145 101.907 53.6867 102.22C53.9651 102.522 54.2914 102.735 54.6656 102.859C55.0375 102.975 55.437 102.976 55.8639 102.861ZM57.1698 102.511L57.4837 102.427C57.9023 102.315 58.2437 102.116 58.508 101.83C58.7784 101.533 58.9544 101.185 59.036 100.786C59.1237 100.377 59.1081 99.9506 58.9893 99.5069C58.8704 99.0633 58.6706 98.6861 58.39 98.3755C58.1094 98.0649 57.782 97.8475 57.4078 97.7235C57.0313 97.5911 56.6338 97.5809 56.2153 97.6931L55.9014 97.7772L57.1698 102.511ZM62.2828 102.11L60.5265 95.5554L61.6315 95.2593L63.3879 101.814L62.2828 102.11ZM60.1968 94.3248L59.8266 92.9436L60.9317 92.6475L61.3018 94.0287L60.1968 94.3248ZM70.7516 101.496L70.3378 99.9519L65.1643 101.338L63.4079 94.7833L64.513 94.4873L66.0102 100.075L69.049 99.2609L67.5518 93.673L68.6568 93.3769L70.154 98.9648L71.0581 98.7225L71.7311 101.234L70.7516 101.496ZM72.5467 99.36L70.7904 92.8052L71.8954 92.5091L73.6518 99.0639L72.5467 99.36ZM70.4607 91.5746L70.0905 90.1934L71.1956 89.8973L71.5657 91.2785L70.4607 91.5746ZM75.4282 98.5879L73.6752 92.0457L74.7802 91.7496L76.1362 96.8101L78.4435 90.7546L79.4481 90.4854L81.2044 97.0402L80.0994 97.3363L78.7704 92.3762L76.483 98.3053L75.4282 98.5879ZM76.374 90.515C75.7713 90.6765 75.2769 90.6565 74.8909 90.4548C74.5026 90.2448 74.2513 89.9264 74.1369 89.4994L74.9155 89.2908C74.9783 89.5252 75.1105 89.7006 75.3122 89.8171C75.52 89.9229 75.8122 89.9253 76.1889 89.8244C76.5573 89.7257 76.7977 89.585 76.9103 89.4023C77.0206 89.2113 77.0588 88.9857 77.025 88.7256L77.8036 88.517C77.918 88.9439 77.8595 89.3454 77.6283 89.7214C77.3948 90.089 76.9767 90.3535 76.374 90.515ZM82.9575 96.5704L81.2012 90.0157L82.3062 89.7196L83.0329 92.4319L86.4484 91.5167L85.7217 88.8044L86.8267 88.5083L88.5831 95.0631L87.478 95.3592L86.7109 92.4962L83.2954 93.4113L84.0625 96.2743L82.9575 96.5704ZM93.2611 93.9442C92.7672 94.0765 92.2958 94.1086 91.8469 94.0405C91.3957 93.964 90.9821 93.8101 90.6061 93.5789C90.2279 93.3393 89.9043 93.0357 89.6353 92.6681C89.3664 92.3005 89.1713 91.8907 89.0502 91.4387C88.9268 90.9783 88.8897 90.5216 88.9388 90.0688C88.988 89.616 89.1176 89.1955 89.3276 88.8072C89.5353 88.4106 89.8166 88.0706 90.1713 87.7871C90.5321 87.493 90.9553 87.2809 91.4409 87.1508C91.9348 87.0185 92.4073 86.9906 92.8585 87.0671C93.3074 87.1352 93.721 87.2891 94.0992 87.5287C94.4836 87.7576 94.8103 88.0559 95.0792 88.4235C95.3482 88.7911 95.5444 89.2051 95.6677 89.6655C95.7889 90.1176 95.8249 90.57 95.7757 91.0228C95.7266 91.4756 95.5981 91.9003 95.3904 92.297C95.1804 92.6852 94.8949 93.0264 94.5341 93.3205C94.1794 93.6039 93.755 93.8118 93.2611 93.9442ZM90.1837 91.1484C90.3048 91.6005 90.511 91.9849 90.8022 92.3016C91.1018 92.6161 91.444 92.8385 91.8288 92.9686C92.2114 93.0904 92.6036 93.0975 93.0054 92.9898C93.4072 92.8822 93.7422 92.6758 94.0104 92.3706C94.2869 92.0633 94.4721 91.6996 94.566 91.2797C94.6659 90.8491 94.6554 90.4078 94.5342 89.9558C94.4131 89.5037 94.2027 89.1204 93.9031 88.8059C93.6119 88.4892 93.2697 88.2668 92.8765 88.1389C92.4917 88.0087 92.0984 87.9975 91.6966 88.1052C91.2947 88.2128 90.9609 88.4234 90.695 88.7369C90.4268 89.0421 90.2416 89.4057 90.1394 89.8279C90.0455 90.2478 90.0603 90.688 90.1837 91.1484Z" fill="#080C1D"/>
<defs>
<linearGradient id="paint0_linear_1_16" x1="104.028" y1="167.769" x2="138.192" y2="65.2232" gradientUnits="userSpaceOnUse">
<stop stop-color="#00E5CC"/>
<stop offset="1" stop-color="#00E5CC" stop-opacity="0"/>
</linearGradient>
<clipPath id="clip0_1_16">
<rect width="20" height="20" fill="white" transform="translate(46.4066 12.0706) rotate(10.7952)"/>
</clipPath>
<clipPath id="clip1_1_16">
<rect width="20" height="20" fill="white" transform="translate(14.1793 99.988) rotate(-15)"/>
</clipPath>
</defs>
</svg>
