<svg xmlns="http://www.w3.org/2000/svg" width="22" height="22" viewBox="0 0 22 22" fill="none">
<path d="M10.3125 17.1479V19.5318C10.3128 19.5805 10.3028 19.6287 10.2831 19.6732C10.2634 19.7177 10.2345 19.7575 10.1982 19.79C10.162 19.8225 10.1193 19.847 10.0729 19.8617C10.0265 19.8765 9.97753 19.8812 9.92919 19.8756C7.94405 19.6329 6.09727 18.7327 4.68312 17.3185C3.26896 15.9044 2.3688 14.0576 2.12606 12.0725C2.12046 12.0241 2.1252 11.9751 2.13995 11.9288C2.1547 11.8824 2.17913 11.8396 2.21162 11.8034C2.24412 11.7672 2.28394 11.7383 2.32845 11.7186C2.37296 11.6989 2.42114 11.6889 2.46981 11.6892H4.852C5.01017 13.0827 5.63635 14.3814 6.6282 15.3729C7.62005 16.3644 8.9189 16.9902 10.3125 17.1479ZM15.7626 11.6875H11.6875V15.7626C12.715 15.6127 13.6666 15.1351 14.4008 14.4008C15.1351 13.6666 15.6127 12.715 15.7626 11.6875ZM11.6875 6.23731V10.3125H15.7626C15.6127 9.28498 15.1351 8.33333 14.4008 7.59909C13.6666 6.86485 12.715 6.38725 11.6875 6.23731ZM19.5318 11.6875H17.1479C16.9901 13.0813 16.3641 14.3803 15.3722 15.3722C14.3803 16.3641 13.0813 16.9901 11.6875 17.1479V19.5318C11.6871 19.5805 11.6972 19.6287 11.7169 19.6732C11.7365 19.7177 11.7655 19.7575 11.8017 19.79C11.8379 19.8225 11.8807 19.847 11.927 19.8617C11.9734 19.8765 12.0224 19.8812 12.0707 19.8756C14.0559 19.6329 15.9027 18.7327 17.3168 17.3185C18.731 15.9044 19.6311 14.0576 19.8739 12.0725C19.8797 12.0241 19.8752 11.9751 19.8607 11.9286C19.8462 11.8822 19.8219 11.8393 19.7896 11.8029C19.7573 11.7665 19.7176 11.7374 19.6731 11.7175C19.6287 11.6976 19.5805 11.6874 19.5318 11.6875ZM17.1479 10.3125H19.5318C19.5805 10.3128 19.6287 10.3028 19.6732 10.2831C19.7177 10.2634 19.7575 10.2345 19.79 10.1982C19.8225 10.162 19.847 10.1193 19.8617 10.0729C19.8765 10.0265 19.8812 9.97753 19.8756 9.92919C19.6329 7.94405 18.7327 6.09727 17.3185 4.68312C15.9044 3.26896 14.0576 2.3688 12.0725 2.12606C12.0241 2.12046 11.9751 2.1252 11.9288 2.13995C11.8824 2.1547 11.8396 2.17913 11.8034 2.21162C11.7672 2.24412 11.7383 2.28394 11.7186 2.32845C11.6989 2.37296 11.6889 2.42114 11.6892 2.46981V4.852C13.0827 5.01017 14.3814 5.63635 15.3729 6.6282C16.3644 7.62005 16.9902 8.9189 17.1479 10.3125ZM9.92919 2.12606C7.94405 2.3688 6.09727 3.26896 4.68312 4.68312C3.26896 6.09727 2.3688 7.94405 2.12606 9.92919C2.12046 9.97753 2.1252 10.0265 2.13995 10.0729C2.1547 10.1193 2.17913 10.162 2.21162 10.1982C2.24412 10.2345 2.28394 10.2634 2.32845 10.2831C2.37296 10.3028 2.42114 10.3128 2.46981 10.3125H4.852C5.0098 8.91864 5.63582 7.61959 6.62771 6.62771C7.61959 5.63582 8.91864 5.0098 10.3125 4.852V2.46809C10.3125 2.41957 10.3024 2.37157 10.2826 2.32727C10.2628 2.28297 10.2338 2.24336 10.1976 2.21105C10.1614 2.17874 10.1188 2.15447 10.0725 2.13982C10.0262 2.12517 9.97739 2.12048 9.92919 2.12606ZM6.23731 10.3125H10.3125V6.23731C9.28498 6.38725 8.33333 6.86485 7.59909 7.59909C6.86485 8.33333 6.38725 9.28498 6.23731 10.3125ZM10.3125 15.7626V11.6875H6.23731C6.38725 12.715 6.86485 13.6666 7.59909 14.4008C8.33333 15.1351 9.28498 15.6127 10.3125 15.7626Z" fill="#F9FBFE"/>
</svg>