<svg xmlns="http://www.w3.org/2000/svg" width="22" height="22" viewBox="0 0 22 22" fill="none">
<path d="M21.3065 10.7009C21.1501 6.66359 17.7951 3.4375 13.7552 3.4375C12.3498 3.43772 10.9723 3.82908 9.77672 4.56778C8.58118 5.30647 7.61483 6.36334 6.98586 7.62008C6.4631 8.66196 6.18978 9.81113 6.1875 10.9768C6.19019 11.1539 6.12592 11.3255 6.00753 11.4573C5.88915 11.5891 5.72538 11.6713 5.54898 11.6875C5.45467 11.6942 5.35997 11.6814 5.27082 11.6499C5.18167 11.6184 5.09998 11.5688 5.03086 11.5043C4.96174 11.4398 4.90667 11.3617 4.8691 11.2749C4.83153 11.1881 4.81226 11.0946 4.8125 11C4.81177 10.0384 4.96675 9.08301 5.27141 8.17094C5.29148 8.11246 5.29541 8.04964 5.28277 7.98912C5.27014 7.92859 5.24142 7.87259 5.19963 7.82702C5.15784 7.78145 5.10454 7.74799 5.04533 7.73017C4.98612 7.71236 4.9232 7.71084 4.8632 7.72578C3.67196 8.02269 2.61406 8.7091 1.85752 9.67599C1.10098 10.6429 0.689175 11.8348 0.6875 13.0625C0.6875 16.0866 3.24414 18.5625 6.27344 18.5625H13.75C14.768 18.5614 15.7753 18.355 16.7116 17.9557C17.648 17.5563 18.4942 16.9722 19.1997 16.2383C19.9051 15.5044 20.4553 14.6357 20.8173 13.6843C21.1793 12.7328 21.3457 11.7182 21.3065 10.7009ZM16.9864 10.1114L12.8614 14.2364C12.7976 14.3003 12.7217 14.351 12.6383 14.3856C12.5548 14.4202 12.4653 14.438 12.375 14.438C12.2847 14.438 12.1952 14.4202 12.1117 14.3856C12.0283 14.351 11.9524 14.3003 11.8886 14.2364L9.82609 12.1739C9.69709 12.0449 9.62462 11.8699 9.62462 11.6875C9.62462 11.5051 9.69709 11.3301 9.82609 11.2011C9.9551 11.0721 10.1301 10.9996 10.3125 10.9996C10.4949 10.9996 10.6699 11.0721 10.7989 11.2011L12.375 12.778L16.0136 9.13859C16.0775 9.07472 16.1533 9.02405 16.2368 8.98948C16.3202 8.95491 16.4097 8.93712 16.5 8.93712C16.5903 8.93712 16.6798 8.95491 16.7632 8.98948C16.8467 9.02405 16.9225 9.07472 16.9864 9.13859C17.0503 9.20247 17.101 9.2783 17.1355 9.36176C17.1701 9.44522 17.1879 9.53467 17.1879 9.625C17.1879 9.71533 17.1701 9.80478 17.1355 9.88824C17.101 9.9717 17.0503 10.0475 16.9864 10.1114Z" fill="#F9FBFE"/>
</svg>