<svg xmlns="http://www.w3.org/2000/svg" width="24" height="25" viewBox="0 0 24 25" fill="none">
<path d="M4.87233 13.0042L3.20383 12.6145C2.98257 12.5628 2.74985 12.6012 2.55686 12.7211C2.36386 12.841 2.22641 13.0327 2.17473 13.2539L0.810827 19.0937C0.759151 19.3149 0.797486 19.5477 0.917398 19.7406C1.03731 19.9336 1.22898 20.0711 1.45023 20.1228L3.11874 20.5125C4.1144 20.745 5.16165 20.5725 6.03012 20.0329C6.89859 19.4933 7.51713 18.6308 7.74967 17.6351C7.98221 16.6395 7.8097 15.5922 7.2701 14.7237C6.73049 13.8553 5.86799 13.2367 4.87233 13.0042ZM3.50843 18.8439L2.67417 18.6491L3.64839 14.4778L4.48265 14.6727C5.03579 14.8019 5.51496 15.1455 5.81474 15.628C6.11452 16.1105 6.21035 16.6923 6.08116 17.2454C5.95197 17.7986 5.60834 18.2777 5.12586 18.5775C4.64338 18.8773 4.06157 18.9731 3.50843 18.8439ZM21.3068 22.4609C21.431 22.6512 21.4744 22.883 21.4276 23.1053C21.3809 23.3276 21.2477 23.5223 21.0575 23.6464C20.6939 23.8913 20.2842 24.0593 19.8535 24.1402C19.4227 24.2212 18.98 24.2133 18.5524 24.1171C16.7118 23.6872 15.6087 21.6535 16.0922 19.5836C16.5756 17.5136 18.4654 16.1789 20.306 16.6088C20.732 16.7119 21.1324 16.901 21.4828 17.1643C21.8331 17.4277 22.126 17.7598 22.3434 18.1404C22.4555 18.3358 22.4862 18.5675 22.4287 18.7853C22.3712 19.0032 22.2302 19.1896 22.0363 19.3042C21.8424 19.4189 21.6111 19.4525 21.3925 19.3978C21.1739 19.3432 20.9857 19.2046 20.8686 19.0122C20.7679 18.8315 20.6316 18.6732 20.4679 18.5469C20.3042 18.4205 20.1166 18.3288 19.9163 18.2773C18.9965 18.0625 18.0286 18.8261 17.7607 19.9732C17.4928 21.1203 18.0223 22.2337 18.9421 22.4486C19.1444 22.4914 19.3534 22.4925 19.5562 22.4518C19.759 22.411 19.9513 22.3293 20.1213 22.2115C20.3116 22.0874 20.5434 22.0439 20.7657 22.0907C20.9881 22.1375 21.1827 22.2706 21.3068 22.4609ZM12.7977 14.8552C10.9582 14.4256 9.06738 15.76 8.58392 17.83C8.10046 19.8999 9.2046 21.9338 11.0441 22.3635C12.8837 22.7931 14.7745 21.4587 15.2579 19.3887C15.7414 17.3187 14.6372 15.2848 12.7977 14.8552ZM11.4338 20.695C10.5141 20.4802 9.98451 19.3667 10.2524 18.2196C10.5203 17.0726 11.4883 16.3089 12.408 16.5237C13.3278 16.7385 13.8573 17.8519 13.5894 18.999C13.3215 20.1461 12.3536 20.9098 11.4338 20.695ZM5.03974 10.404C5.261 10.4557 5.49372 10.4174 5.68671 10.2974C5.8797 10.1775 6.01716 9.98586 6.06883 9.7646L7.82243 2.25634L16.9992 4.39962L15.8301 9.40513C15.7785 9.62639 15.8168 9.85911 15.9367 10.0521C16.0566 10.2451 16.2483 10.3826 16.4695 10.4342L21.4751 11.6033L21.0854 13.2718C21.0337 13.4931 21.072 13.7258 21.1919 13.9188C21.3118 14.1118 21.5035 14.2492 21.7248 14.3009C21.946 14.3526 22.1788 14.3142 22.3717 14.1943C22.5647 14.0744 22.7022 13.8827 22.7539 13.6615L23.3384 11.1587C23.3641 11.0492 23.3679 10.9356 23.3497 10.8246C23.3315 10.7135 23.2916 10.6071 23.2322 10.5115L18.7564 3.30783C18.6969 3.21228 18.6192 3.12937 18.5277 3.06385C18.4363 2.99833 18.3327 2.95147 18.2231 2.92596L8.21212 0.587838C7.7696 0.484486 7.30416 0.561156 6.91817 0.80098C6.53218 1.0408 6.25728 1.42414 6.15393 1.86665L4.40033 9.37492C4.34866 9.59617 4.38699 9.8289 4.5069 10.0219C4.62681 10.2149 4.81848 10.3523 5.03974 10.404ZM18.3922 5.96873L20.6853 9.65933L17.6935 8.96057L18.3922 5.96873Z" fill="#F9FBFE"/>
</svg>