<svg xmlns="http://www.w3.org/2000/svg" width="22" height="22" viewBox="0 0 22 22" fill="none">
<path d="M11.6875 10.3125V18.5625C11.6875 18.7448 11.6151 18.9197 11.4861 19.0486C11.3572 19.1776 11.1823 19.25 11 19.25C10.8177 19.25 10.6428 19.1776 10.5139 19.0486C10.3849 18.9197 10.3125 18.7448 10.3125 18.5625V10.3125C10.3125 10.1302 10.3849 9.9553 10.5139 9.82636C10.6428 9.69743 10.8177 9.625 11 9.625C11.1823 9.625 11.3572 9.69743 11.4861 9.82636C11.6151 9.9553 11.6875 10.1302 11.6875 10.3125ZM17.1875 16.5C17.0052 16.5 16.8303 16.5724 16.7014 16.7014C16.5724 16.8303 16.5 17.0052 16.5 17.1875V18.5625C16.5 18.7448 16.5724 18.9197 16.7014 19.0486C16.8303 19.1776 17.0052 19.25 17.1875 19.25C17.3698 19.25 17.5447 19.1776 17.6736 19.0486C17.8026 18.9197 17.875 18.7448 17.875 18.5625V17.1875C17.875 17.0052 17.8026 16.8303 17.6736 16.7014C17.5447 16.5724 17.3698 16.5 17.1875 16.5ZM19.25 12.375H17.875V3.4375C17.875 3.25516 17.8026 3.0803 17.6736 2.95136C17.5447 2.82243 17.3698 2.75 17.1875 2.75C17.0052 2.75 16.8303 2.82243 16.7014 2.95136C16.5724 3.0803 16.5 3.25516 16.5 3.4375V12.375H15.125C14.9427 12.375 14.7678 12.4474 14.6389 12.5764C14.5099 12.7053 14.4375 12.8802 14.4375 13.0625V14.4375C14.4375 14.6198 14.5099 14.7947 14.6389 14.9236C14.7678 15.0526 14.9427 15.125 15.125 15.125H19.25C19.4323 15.125 19.6072 15.0526 19.7361 14.9236C19.8651 14.7947 19.9375 14.6198 19.9375 14.4375V13.0625C19.9375 12.8802 19.8651 12.7053 19.7361 12.5764C19.6072 12.4474 19.4323 12.375 19.25 12.375ZM4.8125 13.75C4.63016 13.75 4.4553 13.8224 4.32636 13.9514C4.19743 14.0803 4.125 14.2552 4.125 14.4375V18.5625C4.125 18.7448 4.19743 18.9197 4.32636 19.0486C4.4553 19.1776 4.63016 19.25 4.8125 19.25C4.99484 19.25 5.1697 19.1776 5.29864 19.0486C5.42757 18.9197 5.5 18.7448 5.5 18.5625V14.4375C5.5 14.2552 5.42757 14.0803 5.29864 13.9514C5.1697 13.8224 4.99484 13.75 4.8125 13.75ZM6.875 9.625H5.5V3.4375C5.5 3.25516 5.42757 3.0803 5.29864 2.95136C5.1697 2.82243 4.99484 2.75 4.8125 2.75C4.63016 2.75 4.4553 2.82243 4.32636 2.95136C4.19743 3.0803 4.125 3.25516 4.125 3.4375V9.625H2.75C2.56766 9.625 2.3928 9.69743 2.26386 9.82636C2.13493 9.9553 2.0625 10.1302 2.0625 10.3125V11.6875C2.0625 11.8698 2.13493 12.0447 2.26386 12.1736C2.3928 12.3026 2.56766 12.375 2.75 12.375H6.875C7.05734 12.375 7.2322 12.3026 7.36114 12.1736C7.49007 12.0447 7.5625 11.8698 7.5625 11.6875V10.3125C7.5625 10.1302 7.49007 9.9553 7.36114 9.82636C7.2322 9.69743 7.05734 9.625 6.875 9.625ZM13.0625 5.5H11.6875V3.4375C11.6875 3.25516 11.6151 3.0803 11.4861 2.95136C11.3572 2.82243 11.1823 2.75 11 2.75C10.8177 2.75 10.6428 2.82243 10.5139 2.95136C10.3849 3.0803 10.3125 3.25516 10.3125 3.4375V5.5H8.9375C8.75516 5.5 8.5803 5.57243 8.45136 5.70136C8.32243 5.8303 8.25 6.00516 8.25 6.1875V7.5625C8.25 7.74484 8.32243 7.9197 8.45136 8.04864C8.5803 8.17757 8.75516 8.25 8.9375 8.25H13.0625C13.2448 8.25 13.4197 8.17757 13.5486 8.04864C13.6776 7.9197 13.75 7.74484 13.75 7.5625V6.1875C13.75 6.00516 13.6776 5.8303 13.5486 5.70136C13.4197 5.57243 13.2448 5.5 13.0625 5.5Z" fill="#F2F2F2"/>
</svg>