<svg xmlns="http://www.w3.org/2000/svg" width="23" height="24" viewBox="0 0 23 24" fill="none">
<path d="M15.7031 8.11103L15.7031 14.475C15.7031 14.6077 15.6504 14.7349 15.5566 14.8287C15.4628 14.9226 15.3355 14.9753 15.2029 14.9753C15.0702 14.9753 14.9429 14.9226 14.8491 14.8287C14.7553 14.7349 14.7026 14.6077 14.7026 14.475L14.703 9.31798L7.77824 16.2428C7.68447 16.3365 7.55729 16.3892 7.42468 16.3892C7.29208 16.3892 7.1649 16.3365 7.07113 16.2428C6.97736 16.149 6.92468 16.0218 6.92468 15.8892C6.92468 15.7566 6.97736 15.6294 7.07113 15.5357L13.9959 8.61087L8.8389 8.61131C8.70622 8.61131 8.57897 8.5586 8.48515 8.46478C8.39133 8.37096 8.33862 8.24372 8.33862 8.11103C8.33862 7.97835 8.39133 7.8511 8.48515 7.75728C8.57897 7.66346 8.70622 7.61076 8.8389 7.61076L15.2029 7.61076C15.2686 7.61072 15.3336 7.62363 15.3944 7.64876C15.4551 7.67389 15.5102 7.71074 15.5567 7.7572C15.6032 7.80366 15.64 7.85883 15.6651 7.91954C15.6903 7.98025 15.7032 8.04533 15.7031 8.11103Z" fill="#E44501"/>
</svg>