<svg xmlns="http://www.w3.org/2000/svg" width="22" height="22" viewBox="0 0 22 22" fill="none">
  <path d="M18.3614 7.07609L13.5489 2.26359C13.485 2.19977 13.4092 2.14916 13.3257 2.11466C13.2423 2.08015 13.1528 2.06243 13.0625 2.0625H4.8125C4.44783 2.0625 4.09809 2.20737 3.84023 2.46523C3.58237 2.72309 3.4375 3.07283 3.4375 3.4375V18.5625C3.4375 18.9272 3.58237 19.2769 3.84023 19.5348C4.09809 19.7926 4.44783 19.9375 4.8125 19.9375H17.1875C17.5522 19.9375 17.9019 19.7926 18.1598 19.5348C18.4176 19.2769 18.5625 18.9272 18.5625 18.5625V7.5625C18.5626 7.47219 18.5448 7.38275 18.5103 7.29929C18.4758 7.21583 18.4252 7.13999 18.3614 7.07609ZM13.75 15.125H8.25C8.06766 15.125 7.8928 15.0526 7.76386 14.9236C7.63493 14.7947 7.5625 14.6198 7.5625 14.4375C7.5625 14.2552 7.63493 14.0803 7.76386 13.9514C7.8928 13.8224 8.06766 13.75 8.25 13.75H13.75C13.9323 13.75 14.1072 13.8224 14.2361 13.9514C14.3651 14.0803 14.4375 14.2552 14.4375 14.4375C14.4375 14.6198 14.3651 14.7947 14.2361 14.9236C14.1072 15.0526 13.9323 15.125 13.75 15.125ZM13.75 12.375H8.25C8.06766 12.375 7.8928 12.3026 7.76386 12.1736C7.63493 12.0447 7.5625 11.8698 7.5625 11.6875C7.5625 11.5052 7.63493 11.3303 7.76386 11.2014C7.8928 11.0724 8.06766 11 8.25 11H13.75C13.9323 11 14.1072 11.0724 14.2361 11.2014C14.3651 11.3303 14.4375 11.5052 14.4375 11.6875C14.4375 11.8698 14.3651 12.0447 14.2361 12.1736C14.1072 12.3026 13.9323 12.375 13.75 12.375ZM13.0625 7.5625V3.78125L16.8438 7.5625H13.0625Z" fill="#F9FBFE"/>
</svg>