<svg xmlns="http://www.w3.org/2000/svg" width="22" height="22" viewBox="0 0 22 22" fill="none">
<path d="M18.5625 6.18751H11.2845L8.9375 3.84055C8.81028 3.71232 8.65884 3.61065 8.49199 3.54146C8.32513 3.47226 8.14618 3.43693 7.96555 3.43751H3.4375C3.07283 3.43751 2.72309 3.58237 2.46523 3.84024C2.20737 4.0981 2.0625 4.44783 2.0625 4.81251V17.2408C2.06295 17.5912 2.20235 17.9271 2.45012 18.1749C2.6979 18.4227 3.03382 18.5621 3.38422 18.5625H9.67312C9.85546 18.5625 10.0303 18.4901 10.1593 18.3611C10.2882 18.2322 10.3606 18.0573 10.3606 17.875C10.3606 17.6927 10.2882 17.5178 10.1593 17.3889C10.0303 17.2599 9.85546 17.1875 9.67312 17.1875H3.4375V7.56251H18.5625V8.93751C18.5625 9.11984 18.6349 9.29471 18.7639 9.42364C18.8928 9.55257 19.0677 9.62501 19.25 9.62501C19.4323 9.62501 19.6072 9.55257 19.7361 9.42364C19.8651 9.29471 19.9375 9.11984 19.9375 8.93751V7.56251C19.9375 7.19783 19.7926 6.8481 19.5348 6.59024C19.2769 6.33237 18.9272 6.18751 18.5625 6.18751ZM3.4375 6.18751V4.81251H7.96555L9.34055 6.18751H3.4375ZM19.25 13.75H18.5625V13.4063C18.5625 12.7681 18.309 12.156 17.8577 11.7048C17.4065 11.2535 16.7944 11 16.1562 11C15.5181 11 14.906 11.2535 14.4548 11.7048C14.0035 12.156 13.75 12.7681 13.75 13.4063V13.75H13.0625C12.8802 13.75 12.7053 13.8224 12.5764 13.9514C12.4474 14.0803 12.375 14.2552 12.375 14.4375V17.875C12.375 18.0573 12.4474 18.2322 12.5764 18.3611C12.7053 18.4901 12.8802 18.5625 13.0625 18.5625H19.25C19.4323 18.5625 19.6072 18.4901 19.7361 18.3611C19.8651 18.2322 19.9375 18.0573 19.9375 17.875V14.4375C19.9375 14.2552 19.8651 14.0803 19.7361 13.9514C19.6072 13.8224 19.4323 13.75 19.25 13.75ZM17.1875 13.75H15.125V13.4063C15.125 13.1328 15.2337 12.8705 15.427 12.6771C15.6204 12.4837 15.8827 12.375 16.1562 12.375C16.4298 12.375 16.6921 12.4837 16.8855 12.6771C17.0788 12.8705 17.1875 13.1328 17.1875 13.4063V13.75Z" fill="#F9FBFE"/>
</svg>