<svg xmlns="http://www.w3.org/2000/svg" width="33" height="33" viewBox="0 0 33 33" fill="none">
<path d="M27.2373 9.46485H22.8523C22.9011 9.4236 22.9511 9.3836 22.9986 9.33985C23.3782 9.00257 23.6842 8.59059 23.8973 8.12966C24.1104 7.66874 24.2262 7.1688 24.2373 6.6611C24.2537 6.10569 24.1565 5.55279 23.9515 5.03633C23.7465 4.51988 23.4381 4.05077 23.0452 3.65781C22.6524 3.26484 22.1834 2.95632 21.667 2.75117C21.1506 2.54603 20.5977 2.44859 20.0423 2.46485C19.5344 2.47579 19.0342 2.59146 18.5731 2.80461C18.1119 3.01776 17.6997 3.32381 17.3623 3.7036C16.8954 4.24472 16.5158 4.8554 16.2373 5.5136C15.9588 4.8554 15.5792 4.24472 15.1123 3.7036C14.7749 3.32381 14.3627 3.01776 13.9015 2.80461C13.4404 2.59146 12.9402 2.47579 12.4323 2.46485C11.8769 2.44859 11.324 2.54603 10.8076 2.75117C10.2912 2.95632 9.82221 3.26484 9.42937 3.65781C9.03652 4.05077 8.72814 4.51988 8.52315 5.03633C8.31816 5.55279 8.22088 6.10569 8.2373 6.6611C8.24842 7.1688 8.36416 7.66874 8.57731 8.12966C8.79046 8.59059 9.09642 9.00257 9.47606 9.33985C9.52356 9.3811 9.57355 9.4211 9.6223 9.46485H5.2373C4.70687 9.46485 4.19816 9.67556 3.82309 10.0506C3.44802 10.4257 3.2373 10.9344 3.2373 11.4648V15.4648C3.2373 15.9953 3.44802 16.504 3.82309 16.8791C4.19816 17.2541 4.70687 17.4648 5.2373 17.4648V25.4648C5.2373 25.9953 5.44802 26.504 5.82309 26.8791C6.19816 27.2541 6.70687 27.4648 7.2373 27.4648H14.7373C14.8699 27.4648 14.9971 27.4122 15.0909 27.3184C15.1846 27.2246 15.2373 27.0975 15.2373 26.9648V15.4648H5.2373V11.4648H15.2373V15.4648H17.2373V11.4648H27.2373V15.4648H17.2373V26.9648C17.2373 27.0975 17.29 27.2246 17.3838 27.3184C17.4775 27.4122 17.6047 27.4648 17.7373 27.4648H25.2373C25.7677 27.4648 26.2764 27.2541 26.6515 26.8791C27.0266 26.504 27.2373 25.9953 27.2373 25.4648V17.4648C27.7677 17.4648 28.2764 17.2541 28.6515 16.8791C29.0266 16.504 29.2373 15.9953 29.2373 15.4648V11.4648C29.2373 10.9344 29.0266 10.4257 28.6515 10.0506C28.2764 9.67556 27.7677 9.46485 27.2373 9.46485ZM10.8011 7.83985C10.6262 7.68151 10.486 7.48874 10.3892 7.27363C10.2924 7.05852 10.2411 6.82572 10.2386 6.58985C10.2322 6.31348 10.2811 6.03862 10.3824 5.78139C10.4836 5.52416 10.6352 5.28972 10.8282 5.09182C11.0213 4.89391 11.2518 4.73652 11.5064 4.62886C11.7611 4.5212 12.0346 4.46544 12.3111 4.46485H12.3723C12.6082 4.46739 12.841 4.51867 13.0561 4.61547C13.2712 4.71227 13.464 4.8525 13.6223 5.02735C14.6711 6.21235 15.0411 8.17735 15.1711 9.39235C13.9511 9.2636 11.9873 8.8936 10.8011 7.83985ZM21.6761 7.83985C20.4898 8.88985 18.5211 9.25985 17.3011 9.38985C17.4498 8.0761 17.8623 6.15235 18.8623 5.0286C19.0206 4.85375 19.2134 4.71352 19.4285 4.61672C19.6436 4.51993 19.8764 4.46864 20.1123 4.4661H20.1736C20.45 4.46783 20.7233 4.52472 20.9775 4.63344C21.2317 4.74216 21.4617 4.90052 21.6539 5.09924C21.8461 5.29797 21.9967 5.53305 22.0969 5.79073C22.1971 6.04841 22.2448 6.32349 22.2373 6.59985C22.2332 6.83412 22.1811 7.06506 22.0841 7.27836C21.9872 7.49166 21.8474 7.68277 21.6736 7.83985H21.6761Z" fill="#F9FBFE"/>
</svg>