<svg xmlns="http://www.w3.org/2000/svg" width="22" height="22" viewBox="0 0 22 22" fill="none">
<path d="M11 2.0625C9.23233 2.0625 7.50436 2.58668 6.0346 3.56874C4.56483 4.55081 3.41929 5.94665 2.74283 7.57977C2.06637 9.21288 1.88938 11.0099 2.23424 12.7436C2.57909 14.4773 3.43031 16.0698 4.68024 17.3198C5.93017 18.5697 7.52268 19.4209 9.25638 19.7658C10.9901 20.1106 12.7871 19.9336 14.4202 19.2572C16.0534 18.5807 17.4492 17.4352 18.4313 15.9654C19.4133 14.4956 19.9375 12.7677 19.9375 11C19.935 8.6304 18.9926 6.35856 17.317 4.683C15.6414 3.00743 13.3696 2.065 11 2.0625ZM18.5307 10.3125H15.1078C14.9866 7.86672 14.2252 5.54555 12.9491 3.69531C14.4437 4.09658 15.7797 4.94574 16.7775 6.12867C17.7753 7.3116 18.3871 8.77161 18.5307 10.3125ZM8.26977 11.6875H13.7302C13.5859 14.3404 12.6131 16.8111 11 18.553C9.39039 16.8111 8.41414 14.3404 8.26977 11.6875ZM8.26977 10.3125C8.41414 7.65961 9.38696 5.18891 11 3.44695C12.6096 5.18891 13.5859 7.65789 13.7302 10.3125H8.26977ZM12.9491 18.3047C14.2252 16.4519 14.9866 14.1307 15.1078 11.6875H18.5307C18.3871 13.2284 17.7753 14.6884 16.7775 15.8713C15.7797 17.0543 14.4437 17.9034 12.9491 18.3047Z" fill="#F9FBFE"/>
</svg>