<svg xmlns="http://www.w3.org/2000/svg" width="22" height="22" viewBox="0 0 22 22" fill="none">
<path d="M9.625 10.3125C9.625 10.5844 9.54436 10.8503 9.39327 11.0764C9.24218 11.3025 9.02744 11.4788 8.77619 11.5828C8.52494 11.6869 8.24847 11.7141 7.98175 11.6611C7.71503 11.608 7.47003 11.4771 7.27773 11.2848C7.08543 11.0925 6.95447 10.8475 6.90142 10.5807C6.84837 10.314 6.8756 10.0376 6.97967 9.78631C7.08374 9.53506 7.25997 9.32032 7.48609 9.16923C7.71221 9.01814 7.97805 8.9375 8.25 8.9375C8.61467 8.9375 8.96441 9.08237 9.22227 9.34023C9.48013 9.59809 9.625 9.94783 9.625 10.3125ZM19.9375 4.8125V17.1875C19.9375 17.5522 19.7926 17.9019 19.5348 18.1598C19.2769 18.4176 18.9272 18.5625 18.5625 18.5625H3.4375C3.07283 18.5625 2.72309 18.4176 2.46523 18.1598C2.20737 17.9019 2.0625 17.5522 2.0625 17.1875V4.8125C2.0625 4.44783 2.20737 4.09809 2.46523 3.84023C2.72309 3.58237 3.07283 3.4375 3.4375 3.4375H18.5625C18.9272 3.4375 19.2769 3.58237 19.5348 3.84023C19.7926 4.09809 19.9375 4.44783 19.9375 4.8125ZM11.666 14.2656C11.4435 13.435 10.916 12.7187 10.1887 12.2598C10.575 11.8759 10.8385 11.3859 10.946 10.852C11.0534 10.3181 10.9999 9.76437 10.7922 9.26092C10.5846 8.75747 10.2321 8.32702 9.77952 8.02412C9.32693 7.72122 8.7946 7.55952 8.25 7.55952C7.7054 7.55952 7.17307 7.72122 6.72048 8.02412C6.26789 8.32702 5.91543 8.75747 5.70777 9.26092C5.50011 9.76437 5.44661 10.3181 5.55404 10.852C5.66148 11.3859 5.92502 11.8759 6.31125 12.2598C5.58444 12.7192 5.05708 13.4353 4.83398 14.2656C4.7884 14.4423 4.81485 14.6298 4.90752 14.7869C5.00019 14.944 5.15149 15.0579 5.32812 15.1035C5.50476 15.1491 5.69228 15.1226 5.84941 15.03C6.00655 14.9373 6.12043 14.786 6.16602 14.6094C6.39289 13.7285 7.28836 13.0625 8.25 13.0625C9.21164 13.0625 10.108 13.7268 10.334 14.6094C10.3796 14.786 10.4935 14.9373 10.6506 15.03C10.8077 15.1226 10.9952 15.1491 11.1719 15.1035C11.3485 15.0579 11.4998 14.944 11.5925 14.7869C11.6851 14.6298 11.7116 14.4423 11.666 14.2656ZM17.1875 12.375C17.1875 12.1927 17.1151 12.0178 16.9861 11.8889C16.8572 11.7599 16.6823 11.6875 16.5 11.6875H13.0625C12.8802 11.6875 12.7053 11.7599 12.5764 11.8889C12.4474 12.0178 12.375 12.1927 12.375 12.375C12.375 12.5573 12.4474 12.7322 12.5764 12.8611C12.7053 12.9901 12.8802 13.0625 13.0625 13.0625H16.5C16.6823 13.0625 16.8572 12.9901 16.9861 12.8611C17.1151 12.7322 17.1875 12.5573 17.1875 12.375ZM17.1875 9.625C17.1875 9.44266 17.1151 9.2678 16.9861 9.13886C16.8572 9.00993 16.6823 8.9375 16.5 8.9375H13.0625C12.8802 8.9375 12.7053 9.00993 12.5764 9.13886C12.4474 9.2678 12.375 9.44266 12.375 9.625C12.375 9.80734 12.4474 9.9822 12.5764 10.1111C12.7053 10.2401 12.8802 10.3125 13.0625 10.3125H16.5C16.6823 10.3125 16.8572 10.2401 16.9861 10.1111C17.1151 9.9822 17.1875 9.80734 17.1875 9.625Z" fill="#F9FBFE"/>
</svg>