<svg xmlns="http://www.w3.org/2000/svg" width="30" height="29" viewBox="0 0 30 29" fill="none">
<g clip-path="url(#clip0_187_6312)">
<path d="M20.7607 8.79696L17.9724 9.54406L17.4121 7.45289C17.1149 6.34366 16.3892 5.39793 15.3947 4.82375C14.4002 4.24957 13.2183 4.09398 12.1091 4.39119C10.9999 4.68841 10.0541 5.41409 9.47995 6.4086C8.90577 7.40311 8.75018 8.58497 9.04739 9.6942L9.60772 11.7854L6.81949 12.5325C6.44975 12.6316 6.1345 12.8734 5.94311 13.205C5.75172 13.5365 5.69985 13.9304 5.79892 14.3002L8.41379 24.059C8.51286 24.4287 8.75476 24.744 9.08626 24.9353C9.41776 25.1267 9.81172 25.1786 10.1815 25.0795L24.1226 21.344C24.4924 21.2449 24.8076 21.003 24.999 20.6715C25.1904 20.34 25.2423 19.9461 25.1432 19.5763L22.5283 9.81752C22.4293 9.44778 22.1874 9.13254 21.8559 8.94114C21.5244 8.74975 21.1304 8.69788 20.7607 8.79696ZM16.3229 17.3292L16.9152 19.5397C16.9648 19.7246 16.9388 19.9216 16.8431 20.0873C16.7474 20.2531 16.5898 20.374 16.4049 20.4235C16.2201 20.4731 16.0231 20.4471 15.8573 20.3514C15.6916 20.2557 15.5706 20.0981 15.5211 19.9133L14.9288 17.7027C14.4196 17.6629 13.941 17.4444 13.5774 17.0858C13.2137 16.7271 12.9886 16.2515 12.9418 15.743C12.8949 15.2344 13.0293 14.7257 13.3213 14.3067C13.6132 13.8877 14.0439 13.5854 14.5372 13.4532C15.0305 13.321 15.5547 13.3675 16.017 13.5844C16.4794 13.8013 16.8502 14.1746 17.0639 14.6385C17.2776 15.1023 17.3204 15.6268 17.1848 16.1191C17.0492 16.6115 16.7439 17.0401 16.3229 17.3292ZM16.5783 9.91761L11.0018 11.4118L10.4415 9.32065C10.2434 8.58116 10.3471 7.79325 10.7299 7.13025C11.1127 6.46724 11.7432 5.98345 12.4826 5.78531C13.2221 5.58716 14.01 5.69089 14.673 6.07368C15.336 6.45647 15.8198 7.08695 16.018 7.82644L16.5783 9.91761Z" fill="#000E1F"/>
</g>
<defs>
<clipPath id="clip0_187_6312">
<rect width="23.0927" height="23.0927" fill="white" transform="translate(0.769775 6.68256) rotate(-15)"/>
</clipPath>
</defs>
</svg>