<svg xmlns="http://www.w3.org/2000/svg" width="30" height="30" viewBox="0 0 30 30" fill="none">
<g clip-path="url(#clip0_332_1219)">
<path opacity="0.2" d="M20.2075 9.44531L15.6815 11.2103L13.9165 6.68433L20.2075 9.44531Z" fill="#F9FBFE"/>
<path d="M23.5171 14.1137C23.584 14.2852 23.58 14.4762 23.506 14.6447C23.4321 14.8133 23.2942 14.9455 23.1227 15.0124L21.183 15.7688L21.6873 17.062L22.9804 16.5577C23.1519 16.4908 23.3429 16.4948 23.5115 16.5688C23.68 16.6427 23.8123 16.7806 23.8791 16.9521C23.946 17.1236 23.942 17.3146 23.868 17.4832C23.7941 17.6517 23.6562 17.7839 23.4847 17.8508L22.1916 18.3551L22.6958 19.6482C22.7627 19.8197 22.7587 20.0107 22.6848 20.1793C22.6108 20.3478 22.4729 20.4801 22.3014 20.5469C22.1299 20.6138 21.9389 20.6098 21.7704 20.5359C21.6018 20.4619 21.4696 20.324 21.4027 20.1525L19.6377 15.6265C19.5709 15.4551 19.5748 15.264 19.6488 15.0955C19.7228 14.927 19.8607 14.7947 20.0321 14.7278L22.6184 13.7193C22.7899 13.6524 22.9809 13.6564 23.1495 13.7304C23.318 13.8043 23.4503 13.9422 23.5171 14.1137ZM13.4791 19.8905C13.7132 20.4906 13.6992 21.1592 13.4403 21.7491C13.1814 22.339 12.6988 22.8019 12.0986 23.0359L11.4521 23.2881L11.7042 23.9346C11.7711 24.1061 11.7671 24.2971 11.6931 24.4657C11.6191 24.6342 11.4813 24.7665 11.3098 24.8333C11.1383 24.9002 10.9473 24.8962 10.7787 24.8223C10.6102 24.7483 10.4779 24.6104 10.4111 24.4389L8.64608 19.913C8.5792 19.7415 8.58319 19.5504 8.65716 19.3819C8.73113 19.2134 8.86902 19.0811 9.0405 19.0142L10.3336 18.51C10.9338 18.2759 11.6024 18.2899 12.1923 18.5488C12.7822 18.8076 13.2451 19.2903 13.4791 19.8905ZM12.186 20.3947C12.0857 20.1375 11.8873 19.9307 11.6345 19.8197C11.3817 19.7088 11.0951 19.7028 10.8379 19.8031L10.1914 20.0552L10.9478 21.9949L11.5943 21.7428C11.8516 21.6425 12.0584 21.4441 12.1694 21.1913C12.2803 20.9385 12.2863 20.652 12.186 20.3947ZM19.5504 18.2677C19.8513 19.0394 19.8333 19.899 19.5005 20.6574C19.1676 21.4159 18.5471 22.011 17.7754 22.3119L16.4823 22.8162C16.3108 22.8831 16.1198 22.8791 15.9513 22.8051C15.7827 22.7312 15.6505 22.5933 15.5836 22.4218L13.8186 17.8958C13.7517 17.7243 13.7557 17.5333 13.8297 17.3648C13.9037 17.1962 14.0416 17.064 14.213 16.9971L15.5062 16.4928C16.2778 16.1919 17.1374 16.2098 17.8959 16.5427C18.6543 16.8756 19.2494 17.4961 19.5504 18.2677ZM18.2572 18.772C18.0901 18.3433 17.7594 17.9986 17.3381 17.8137C16.9167 17.6288 16.4392 17.6188 16.0105 17.786L15.3639 18.0381L16.6246 21.2709L17.2712 21.0188C17.6999 20.8516 18.0446 20.521 18.2295 20.0996C18.4144 19.6783 18.4244 19.2007 18.2572 18.772ZM7.38537 16.6801L5.1161 10.861C4.98235 10.518 4.99033 10.136 5.13827 9.79892C5.28621 9.46184 5.56199 9.19733 5.90495 9.06359L13.6638 6.03789C13.7487 6.00471 13.8393 5.98857 13.9304 5.99041C14.0216 5.99225 14.1115 6.01203 14.195 6.04862L20.4859 8.80961C20.5694 8.84629 20.6448 8.89906 20.7078 8.96489C20.7709 9.03073 20.8204 9.10834 20.8534 9.1933L21.6099 11.133C21.6767 11.3045 21.6727 11.4955 21.5988 11.664C21.5248 11.8326 21.3869 11.9648 21.2154 12.0317C21.0439 12.0986 20.8529 12.0946 20.6844 12.0206C20.5158 11.9467 20.3836 11.8088 20.3167 11.6373L19.8124 10.3442L15.933 11.857C15.7616 11.9239 15.5705 11.9199 15.402 11.8459C15.2334 11.7719 15.1012 11.6341 15.0343 11.4626L13.5215 7.58317L6.40923 10.3567L8.67851 16.1758C8.74538 16.3473 8.74139 16.5383 8.66742 16.7069C8.59345 16.8754 8.45556 17.0077 8.28408 17.0745C8.1126 17.1414 7.92158 17.1374 7.75304 17.0635C7.5845 16.9895 7.45224 16.8516 7.38537 16.6801ZM16.0753 10.3117L18.3941 9.40748L15.1711 7.99297L16.0753 10.3117Z" fill="#F9FBFE"/>
</g>
<defs>
<clipPath id="clip0_332_1219">
<rect width="22.2077" height="22.2077" fill="white" transform="translate(0.623047 8.88892) rotate(-21.3042)"/>
</clipPath>
</defs>
</svg>