<svg xmlns="http://www.w3.org/2000/svg" width="21" height="15" viewBox="0 0 21 15" fill="none">
<path d="M16.8094 6.18285L12.9095 10.2172C12.7876 10.3434 12.6221 10.4143 12.4497 10.4143C12.2772 10.4143 12.1118 10.3434 11.9898 10.2172C11.8678 10.0911 11.7993 9.91993 11.7993 9.7415C11.7993 9.56307 11.8678 9.39195 11.9898 9.26578L14.7806 6.37953H5.29995V13.3276C5.29995 13.5059 5.23147 13.677 5.10958 13.8031C4.98768 13.9292 4.82236 14 4.64997 14C4.47759 14 4.31227 13.9292 4.19037 13.8031C4.06848 13.677 4 13.5059 4 13.3276V5.70713C4 5.5288 4.06848 5.35778 4.19037 5.23168C4.31227 5.10558 4.47759 5.03474 4.64997 5.03474H14.7806L11.9898 2.14849C11.8678 2.02232 11.7993 1.8512 11.7993 1.67277C11.7993 1.49434 11.8678 1.32322 11.9898 1.19705C12.1118 1.07088 12.2772 1 12.4497 1C12.6221 1 12.7876 1.07088 12.9095 1.19705L16.8094 5.23142C16.8698 5.29386 16.9177 5.36802 16.9505 5.44965C16.9832 5.53128 17 5.61877 17 5.70713C17 5.7955 16.9832 5.88299 16.9505 5.96462C16.9177 6.04625 16.8698 6.12041 16.8094 6.18285Z" fill="#F9FBFE"/>
</svg>