<svg width="21" height="21" viewBox="0 0 21 21" fill="none" xmlns="http://www.w3.org/2000/svg">
<g id="icons8-&#209;&#130;&#208;&#181;&#208;&#187;&#208;&#181;&#208;&#179;&#209;&#128;&#208;&#176;&#208;&#188; 1" clip-path="url(#clip0_187_5820)">
<path id="Vector" d="M10.1358 0.872559C15.2511 0.872559 19.3976 5.01902 19.3976 10.1343C19.3976 15.2497 15.2511 19.3961 10.1358 19.3961C5.02048 19.3961 0.874023 15.2497 0.874023 10.1343C0.874023 5.01902 5.02048 0.872559 10.1358 0.872559ZM13.3307 13.9095C13.5011 13.3868 14.2992 8.17769 14.3978 7.15124C14.4276 6.84037 14.3294 6.63379 14.1369 6.54157C13.9041 6.42963 13.5594 6.4856 13.1596 6.62976C12.6111 6.82748 5.59955 9.80454 5.19444 9.97689C4.81028 10.14 4.44706 10.318 4.44706 10.5757C4.44706 10.7569 4.55457 10.8588 4.85095 10.9647C5.15941 11.0746 5.93619 11.3102 6.39485 11.4366C6.8366 11.5586 7.33955 11.4527 7.62143 11.2776C7.92023 11.0919 11.3684 8.78454 11.6161 8.58239C11.8633 8.38024 12.0606 8.63917 11.8585 8.84172C11.6563 9.04387 9.28936 11.3412 8.97728 11.6593C8.59835 12.0455 8.86734 12.4458 9.12144 12.606C9.41177 12.7888 11.4997 14.1894 11.8142 14.4141C12.1287 14.6388 12.4476 14.7407 12.7396 14.7407C13.0315 14.7407 13.1853 14.3561 13.3307 13.9095Z" fill="#060640"/>
</g>
<defs>
<clipPath id="clip0_187_5820">
<rect width="20.1343" height="20.1343" fill="white" transform="translate(0.0673828 0.0673828)"/>
</clipPath>
</defs>
</svg>
