<svg xmlns="http://www.w3.org/2000/svg" width="33" height="33" viewBox="0 0 33 33" fill="none">
<path d="M31.1661 15.0898L29.4161 10.7148C29.2675 10.3445 29.0111 10.0273 28.6801 9.80441C28.3492 9.58152 27.9588 9.46322 27.5598 9.46484H23.2373V8.46484C23.2373 8.19963 23.1319 7.94527 22.9444 7.75774C22.7569 7.5702 22.5025 7.46484 22.2373 7.46484H3.2373C2.70687 7.46484 2.19816 7.67556 1.82309 8.05063C1.44802 8.4257 1.2373 8.93441 1.2373 9.46484V23.4648C1.2373 23.9953 1.44802 24.504 1.82309 24.8791C2.19816 25.2541 2.70687 25.4648 3.2373 25.4648H5.3623C5.58261 26.3253 6.08301 27.0879 6.78462 27.6325C7.48622 28.1771 8.34913 28.4727 9.2373 28.4727C10.1255 28.4727 10.9884 28.1771 11.69 27.6325C12.3916 27.0879 12.892 26.3253 13.1123 25.4648H19.3623C19.5826 26.3253 20.083 27.0879 20.7846 27.6325C21.4862 28.1771 22.3491 28.4727 23.2373 28.4727C24.1255 28.4727 24.9884 28.1771 25.69 27.6325C26.3916 27.0879 26.892 26.3253 27.1123 25.4648H29.2373C29.7677 25.4648 30.2764 25.2541 30.6515 24.8791C31.0266 24.504 31.2373 23.9953 31.2373 23.4648V15.4648C31.2375 15.3365 31.2133 15.2092 31.1661 15.0898ZM9.2373 26.4648C8.84174 26.4648 8.45506 26.3475 8.12616 26.1278C7.79727 25.908 7.54092 25.5957 7.38955 25.2302C7.23817 24.8648 7.19856 24.4626 7.27573 24.0747C7.3529 23.6867 7.54339 23.3303 7.82309 23.0506C8.1028 22.7709 8.45916 22.5804 8.84712 22.5033C9.23509 22.4261 9.63722 22.4657 10.0027 22.6171C10.3681 22.7685 10.6805 23.0248 10.9002 23.3537C11.12 23.6826 11.2373 24.0693 11.2373 24.4648C11.2373 24.9953 11.0266 25.504 10.6515 25.8791C10.2764 26.2541 9.76774 26.4648 9.2373 26.4648ZM3.2373 17.4648V9.46484H21.2373V17.4648H3.2373ZM23.2373 26.4648C22.8417 26.4648 22.4551 26.3475 22.1262 26.1278C21.7973 25.908 21.5409 25.5957 21.3895 25.2302C21.2382 24.8648 21.1986 24.4626 21.2757 24.0747C21.3529 23.6867 21.5434 23.3303 21.8231 23.0506C22.1028 22.7709 22.4592 22.5804 22.8471 22.5033C23.2351 22.4261 23.6372 22.4657 24.0027 22.6171C24.3681 22.7685 24.6805 23.0248 24.9002 23.3537C25.12 23.6826 25.2373 24.0693 25.2373 24.4648C25.2373 24.9953 25.0266 25.504 24.6515 25.8791C24.2764 26.2541 23.7677 26.4648 23.2373 26.4648ZM23.2373 14.4648V11.4648H27.5598L28.7598 14.4648H23.2373Z" fill="#F9FBFE"/>
</svg>