<svg xmlns="http://www.w3.org/2000/svg" width="21" height="22" viewBox="0 0 21 22" fill="none">
<path d="M11.0847 19.1207C11.0199 19.3023 10.8824 19.4497 10.7026 19.5303C10.5227 19.6109 10.3152 19.6182 10.1257 19.5506L7.62452 18.6581C7.43499 18.5905 7.27897 18.4535 7.19078 18.2773C7.10259 18.101 7.08945 17.8999 7.15426 17.7183L8.86475 12.9244C8.92956 12.7428 9.067 12.5954 9.24684 12.5148C9.42668 12.4342 9.6342 12.4269 9.82372 12.4945C10.0133 12.5622 10.1693 12.6992 10.2575 12.8754C10.3457 13.0517 10.3588 13.2527 10.294 13.4344L8.82785 17.5434L10.6144 18.1809C10.8039 18.2485 10.96 18.3855 11.0481 18.5618C11.1363 18.738 11.1495 18.9391 11.0847 19.1207ZM7.33511 11.7504C7.27739 11.6709 7.20436 11.6027 7.12017 11.5498C7.03598 11.4969 6.94229 11.4602 6.84444 11.442C6.74659 11.4238 6.64651 11.4242 6.5499 11.4434C6.4533 11.4626 6.36206 11.5002 6.2814 11.5539L4.49938 12.741L3.87134 10.694C3.84641 10.5977 3.8017 10.5067 3.7399 10.4266C3.6781 10.3464 3.6005 10.2788 3.51178 10.2278C3.42305 10.1768 3.32505 10.1434 3.22367 10.1297C3.1223 10.116 3.01966 10.1222 2.92194 10.1481C2.82423 10.1739 2.73347 10.2187 2.65514 10.2799C2.5768 10.3411 2.51253 10.4173 2.46618 10.504C2.41984 10.5907 2.39238 10.6861 2.38548 10.7843C2.37858 10.8826 2.39237 10.9817 2.42602 11.0758L3.201 13.6057L0.997807 15.0729C0.844777 15.185 0.743932 15.3511 0.716269 15.5365C0.688607 15.722 0.736261 15.9126 0.849308 16.0686C0.962354 16.2245 1.13208 16.3339 1.32314 16.374C1.51421 16.414 1.71188 16.3815 1.875 16.2834L3.6588 15.0969L4.28684 17.1439C4.35099 17.3232 4.48348 17.4734 4.65672 17.5634C4.82996 17.6534 5.0306 17.6761 5.21687 17.6269C5.40313 17.5777 5.56066 17.4604 5.65664 17.2993C5.75263 17.1382 5.77968 16.9458 5.73216 16.7622L4.95718 14.2323L7.16038 12.765C7.24104 12.7113 7.30954 12.6424 7.36198 12.5624C7.41441 12.4823 7.44975 12.3926 7.46598 12.2984C7.4822 12.2042 7.479 12.1073 7.45654 12.0133C7.43409 11.9192 7.39282 11.8299 7.33511 11.7504ZM15.3845 17.1142C15.0626 16.8874 14.7292 16.6536 14.5683 16.4524C14.4817 16.3423 14.489 16.3276 14.5263 16.254C14.5499 16.1923 14.5886 16.1373 14.6392 16.0937C14.6898 16.0501 14.7508 16.0192 14.8171 16.0036C15.3233 15.8831 16.2402 16.3444 16.6046 16.5874C16.7715 16.699 16.9756 16.7431 17.1721 16.7099C17.3685 16.6768 17.5412 16.5691 17.6521 16.4106C17.763 16.252 17.8031 16.0557 17.7635 15.8646C17.7239 15.6736 17.6079 15.5036 17.441 15.3919C17.2694 15.2776 15.7246 14.2757 14.4241 14.5818C14.1499 14.6466 13.8954 14.7691 13.6784 14.9408C13.4614 15.1125 13.2873 15.3291 13.1683 15.5755C12.5043 16.872 13.7639 17.7586 14.5166 18.2878C15.4873 18.9709 15.5383 19.1271 15.4264 19.3449C15.3251 19.5413 15.2121 19.5898 15.1143 19.6128C14.6099 19.7281 13.7125 19.2631 13.3582 19.0199C13.1925 18.9059 12.9886 18.8591 12.7913 18.8897C12.6936 18.9048 12.6005 18.9385 12.5172 18.9888C12.434 19.0392 12.3622 19.1052 12.3061 19.183C12.2499 19.2609 12.2105 19.3491 12.19 19.4427C12.1695 19.5362 12.1684 19.6332 12.1867 19.7282C12.2236 19.92 12.3374 20.0918 12.503 20.2058C12.9061 20.4757 13.3415 20.6959 13.7988 20.8612C14.3187 21.0467 14.9281 21.1676 15.4974 21.0368C15.7781 20.9727 16.039 20.8487 16.2612 20.6739C16.4834 20.499 16.6615 20.2776 16.7826 20.0256C17.5088 18.6142 16.1806 17.6742 15.3845 17.1142ZM3.65495 7.20536L5.85415 1.04176C5.98376 0.678499 6.25865 0.383841 6.61833 0.222611C6.97802 0.0613804 7.39304 0.0467847 7.7721 0.182035L16.3475 3.24179C16.4414 3.27522 16.5281 3.32604 16.6026 3.39137C16.6771 3.45669 16.7379 3.53523 16.7817 3.62251L20.0735 10.2013C20.1171 10.2886 20.1428 10.3829 20.149 10.4789C20.1552 10.5748 20.1418 10.6705 20.1097 10.7604L19.3766 12.8149C19.3118 12.9966 19.1743 13.1439 18.9945 13.2245C18.8147 13.3051 18.6071 13.3124 18.4176 13.2448C18.2281 13.1772 18.0721 13.0402 17.9839 12.8639C17.8957 12.6876 17.8825 12.4866 17.9473 12.305L18.4361 10.9353L14.1483 9.40539C13.9588 9.33777 13.8028 9.20076 13.7146 9.02451C13.6264 8.84826 13.6133 8.6472 13.6781 8.46557L15.1442 4.3565L7.28339 1.55172L5.08419 7.71532C5.01938 7.89695 4.88194 8.04428 4.70209 8.1249C4.52225 8.20551 4.31474 8.21281 4.12521 8.14519C3.93568 8.07756 3.77966 7.94055 3.69147 7.7643C3.60328 7.58805 3.59014 7.38699 3.65495 7.20536ZM15.3517 8.29068L17.9136 9.20479L16.228 5.83466L15.3517 8.29068Z" fill="#F9FBFE"/>
</svg>